<?xml version="1.0" encoding="UTF-8"?><!DOCTYPE svg PUBLIC "-//W3C//DTD SVG 1.1//EN" "http://www.w3.org/Graphics/SVG/1.1/DTD/svg11.dtd"><svg xmlns="http://www.w3.org/2000/svg" xmlns:xlink="http://www.w3.org/1999/xlink"><symbol id="facebook" viewBox="0 0 27 27">
<path fill-rule="evenodd" clip-rule="evenodd" d="M27 13.5C27 6.04462 20.9562 0 13.5 0C6.04379 0 0 6.04462 0 13.5C0 20.9562 6.04369 27 13.5 27C20.9562 27 27 20.9563 27 13.5ZM16.8836 9.29395H15.1437C14.6754 9.29395 14.3464 9.69053 14.3464 10.185V10.9604H16.8312L16.4288 13.4772H14.3455V20.2238H11.8025V13.4772H10.115V10.9604H11.8025V9.677H11.8075C11.8523 8.21392 12.3602 6.82092 14.8383 6.73315V6.72388H16.8836V9.29395Z" fill="currentColor"/>
</symbol><symbol id="footer-logo" viewBox="0 0 216 52">
<path d="M76.9355 24.3369C76.9355 23.6126 76.7484 23.0674 76.374 22.7012C76.0078 22.3268 75.3364 21.9403 74.3599 21.5415C72.5776 20.866 71.2959 20.0767 70.5146 19.1733C69.7334 18.2619 69.3428 17.1877 69.3428 15.9507C69.3428 14.4533 69.8717 13.2529 70.9297 12.3496C71.9958 11.4382 73.3467 10.9824 74.9824 10.9824C76.0729 10.9824 77.0454 11.2144 77.8999 11.6782C78.7544 12.134 79.4095 12.7809 79.8652 13.6191C80.3291 14.4574 80.561 15.4095 80.561 16.4756H76.9844C76.9844 15.6455 76.8053 15.0148 76.4473 14.5835C76.0973 14.144 75.5887 13.9243 74.9214 13.9243C74.2948 13.9243 73.8065 14.1115 73.4565 14.4858C73.1066 14.8521 72.9316 15.3485 72.9316 15.9751C72.9316 16.4634 73.127 16.9069 73.5176 17.3057C73.9082 17.6963 74.5999 18.1032 75.5928 18.5264C77.3262 19.153 78.5835 19.922 79.3647 20.8335C80.1541 21.745 80.5488 22.9046 80.5488 24.3125C80.5488 25.8587 80.0565 27.0672 79.0718 27.938C78.0871 28.8088 76.7484 29.2441 75.0557 29.2441C73.9082 29.2441 72.8625 29.0081 71.9185 28.5361C70.9744 28.0641 70.2339 27.3887 69.6968 26.5098C69.1678 25.6309 68.9033 24.5933 68.9033 23.397H72.5044C72.5044 24.4224 72.7038 25.167 73.1025 25.6309C73.5013 26.0947 74.1523 26.3267 75.0557 26.3267C76.3089 26.3267 76.9355 25.6634 76.9355 24.3369ZM88.0928 29.2441C86.3187 29.2441 84.9352 28.7152 83.9424 27.6572C82.9495 26.5993 82.4531 25.0856 82.4531 23.1162V22.0664C82.4531 19.9831 82.9089 18.3758 83.8203 17.2446C84.7318 16.1134 86.0379 15.5479 87.7388 15.5479C89.3989 15.5479 90.6481 16.0809 91.4863 17.147C92.3245 18.2049 92.7518 19.7756 92.7681 21.8589V23.5557H85.8955C85.9443 24.5322 86.16 25.2484 86.5425 25.7041C86.925 26.1517 87.515 26.3755 88.3125 26.3755C89.4681 26.3755 90.4325 25.9808 91.2056 25.1914L92.5605 27.2788C92.1374 27.8647 91.5229 28.3408 90.7173 28.707C89.9116 29.0651 89.0368 29.2441 88.0928 29.2441ZM85.9199 21.1387H89.3745V20.8213C89.3582 20.0319 89.228 19.4338 88.9839 19.0269C88.7397 18.62 88.3166 18.4165 87.7144 18.4165C87.1121 18.4165 86.6727 18.6322 86.396 19.0635C86.1274 19.4948 85.9688 20.1865 85.9199 21.1387ZM101.24 19.1245L100.092 19.0269C99.1483 19.0269 98.5094 19.4419 98.1758 20.272V29H94.709V15.792H97.9683L98.0659 17.2202C98.6112 16.1053 99.3639 15.5479 100.324 15.5479C100.715 15.5479 101.032 15.6007 101.276 15.7065L101.24 19.1245ZM107.575 24.1172L109.248 15.792H112.849L109.223 29H105.927L102.29 15.792H105.903L107.575 24.1172ZM118.098 29H114.631V15.792H118.098V29ZM114.472 12.374C114.472 11.8369 114.643 11.3975 114.985 11.0557C115.327 10.7139 115.782 10.543 116.352 10.543C116.922 10.543 117.377 10.7139 117.719 11.0557C118.061 11.3975 118.232 11.8369 118.232 12.374C118.232 12.903 118.061 13.3424 117.719 13.6924C117.386 14.0423 116.93 14.2173 116.352 14.2173C115.774 14.2173 115.314 14.0423 114.973 13.6924C114.639 13.3424 114.472 12.903 114.472 12.374ZM125.544 26.3755C126.545 26.3755 127.054 25.7244 127.07 24.4224H130.317C130.301 25.8628 129.857 27.0265 128.986 27.9136C128.116 28.8006 126.993 29.2441 125.617 29.2441C123.916 29.2441 122.618 28.7152 121.723 27.6572C120.828 26.5993 120.372 25.0409 120.356 22.9819V21.9321C120.356 19.8569 120.795 18.2741 121.674 17.1836C122.561 16.0931 123.868 15.5479 125.593 15.5479C127.049 15.5479 128.197 15.9995 129.035 16.9028C129.873 17.798 130.301 19.0716 130.317 20.7236H127.07C127.062 19.9831 126.94 19.4134 126.704 19.0146C126.468 18.6159 126.077 18.4165 125.532 18.4165C124.93 18.4165 124.498 18.6322 124.238 19.0635C123.977 19.4867 123.839 20.3127 123.823 21.5415V22.8843C123.823 23.9585 123.876 24.7113 123.981 25.1426C124.087 25.5658 124.262 25.8791 124.506 26.0825C124.75 26.2778 125.096 26.3755 125.544 26.3755ZM137.604 29.2441C135.83 29.2441 134.447 28.7152 133.454 27.6572C132.461 26.5993 131.965 25.0856 131.965 23.1162V22.0664C131.965 19.9831 132.421 18.3758 133.332 17.2446C134.243 16.1134 135.55 15.5479 137.25 15.5479C138.911 15.5479 140.16 16.0809 140.998 17.147C141.836 18.2049 142.264 19.7756 142.28 21.8589V23.5557H135.407C135.456 24.5322 135.672 25.2484 136.054 25.7041C136.437 26.1517 137.027 26.3755 137.824 26.3755C138.98 26.3755 139.944 25.9808 140.717 25.1914L142.072 27.2788C141.649 27.8647 141.035 28.3408 140.229 28.707C139.423 29.0651 138.549 29.2441 137.604 29.2441ZM135.432 21.1387H138.886V20.8213C138.87 20.0319 138.74 19.4338 138.496 19.0269C138.251 18.62 137.828 18.4165 137.226 18.4165C136.624 18.4165 136.184 18.6322 135.908 19.0635C135.639 19.4948 135.48 20.1865 135.432 21.1387ZM150.166 29V11.2266H154.865C156.94 11.2266 158.592 11.8857 159.821 13.2041C161.058 14.5225 161.689 16.3291 161.713 18.624V21.5049C161.713 23.8405 161.095 25.6756 159.858 27.0103C158.629 28.3368 156.932 29 154.768 29H150.166ZM153.754 14.2173V26.0215H154.829C156.025 26.0215 156.867 25.7082 157.355 25.0815C157.844 24.4468 158.1 23.3563 158.125 21.8101V18.7217C158.125 17.0615 157.893 15.9059 157.429 15.2549C156.965 14.5957 156.175 14.2498 155.061 14.2173H153.754ZM169.465 29.2441C167.691 29.2441 166.307 28.7152 165.314 27.6572C164.322 26.5993 163.825 25.0856 163.825 23.1162V22.0664C163.825 19.9831 164.281 18.3758 165.192 17.2446C166.104 16.1134 167.41 15.5479 169.111 15.5479C170.771 15.5479 172.02 16.0809 172.858 17.147C173.697 18.2049 174.124 19.7756 174.14 21.8589V23.5557H167.268C167.316 24.5322 167.532 25.2484 167.915 25.7041C168.297 26.1517 168.887 26.3755 169.685 26.3755C170.84 26.3755 171.805 25.9808 172.578 25.1914L173.933 27.2788C173.509 27.8647 172.895 28.3408 172.089 28.707C171.284 29.0651 170.409 29.2441 169.465 29.2441ZM167.292 21.1387H170.747V20.8213C170.73 20.0319 170.6 19.4338 170.356 19.0269C170.112 18.62 169.689 18.4165 169.086 18.4165C168.484 18.4165 168.045 18.6322 167.768 19.0635C167.5 19.4948 167.341 20.1865 167.292 21.1387ZM180.256 24.1172L181.928 15.792H185.529L181.904 29H178.608L174.97 15.792H178.583L180.256 24.1172ZM190.778 29H187.312V15.792H190.778V29ZM187.153 12.374C187.153 11.8369 187.324 11.3975 187.666 11.0557C188.007 10.7139 188.463 10.543 189.033 10.543C189.602 10.543 190.058 10.7139 190.4 11.0557C190.742 11.3975 190.913 11.8369 190.913 12.374C190.913 12.903 190.742 13.3424 190.4 13.6924C190.066 14.0423 189.611 14.2173 189.033 14.2173C188.455 14.2173 187.995 14.0423 187.653 13.6924C187.32 13.3424 187.153 12.903 187.153 12.374ZM198.225 26.3755C199.226 26.3755 199.734 25.7244 199.75 24.4224H202.998C202.981 25.8628 202.538 27.0265 201.667 27.9136C200.796 28.8006 199.673 29.2441 198.298 29.2441C196.597 29.2441 195.299 28.7152 194.404 27.6572C193.509 26.5993 193.053 25.0409 193.037 22.9819V21.9321C193.037 19.8569 193.476 18.2741 194.355 17.1836C195.242 16.0931 196.548 15.5479 198.273 15.5479C199.73 15.5479 200.878 15.9995 201.716 16.9028C202.554 17.798 202.981 19.0716 202.998 20.7236H199.75C199.742 19.9831 199.62 19.4134 199.384 19.0146C199.148 18.6159 198.758 18.4165 198.212 18.4165C197.61 18.4165 197.179 18.6322 196.918 19.0635C196.658 19.4867 196.52 20.3127 196.503 21.5415V22.8843C196.503 23.9585 196.556 24.7113 196.662 25.1426C196.768 25.5658 196.943 25.8791 197.187 26.0825C197.431 26.2778 197.777 26.3755 198.225 26.3755ZM210.285 29.2441C208.511 29.2441 207.128 28.7152 206.135 27.6572C205.142 26.5993 204.646 25.0856 204.646 23.1162V22.0664C204.646 19.9831 205.101 18.3758 206.013 17.2446C206.924 16.1134 208.23 15.5479 209.931 15.5479C211.591 15.5479 212.84 16.0809 213.679 17.147C214.517 18.2049 214.944 19.7756 214.96 21.8589V23.5557H208.088C208.137 24.5322 208.352 25.2484 208.735 25.7041C209.117 26.1517 209.707 26.3755 210.505 26.3755C211.66 26.3755 212.625 25.9808 213.398 25.1914L214.753 27.2788C214.33 27.8647 213.715 28.3408 212.91 28.707C212.104 29.0651 211.229 29.2441 210.285 29.2441ZM208.112 21.1387H211.567V20.8213C211.551 20.0319 211.42 19.4338 211.176 19.0269C210.932 18.62 210.509 18.4165 209.907 18.4165C209.305 18.4165 208.865 18.6322 208.588 19.0635C208.32 19.4948 208.161 20.1865 208.112 21.1387Z" fill="#203C42"/>
<path d="M70.9473 44.9609L72.2363 40.6602H73.7539L71.2344 47.9609C70.8477 49.0273 70.1914 49.5605 69.2656 49.5605C69.0586 49.5605 68.8301 49.5254 68.5801 49.4551V48.3535L68.8496 48.3711C69.209 48.3711 69.4785 48.3047 69.6582 48.1719C69.8418 48.043 69.9863 47.8242 70.0918 47.5156L70.2969 46.9707L68.0703 40.6602H69.6055L70.9473 44.9609ZM78.3418 45.248L80.2168 40.6602H81.998V47H80.5742V42.8047L78.8281 47H77.8613L76.1094 42.7812V47H74.6855V40.6602H76.4785L78.3418 45.248ZM88.9707 47H87.5469V44.4395H85.0801V47H83.6562V40.6602H85.0801V43.3027H87.5469V40.6602H88.9707V47ZM92.0234 42.6758H93.418C93.9375 42.6758 94.3906 42.7656 94.7773 42.9453C95.1641 43.125 95.457 43.377 95.6562 43.7012C95.8594 44.0254 95.9609 44.4023 95.9609 44.832C95.9609 45.4844 95.7305 46.0078 95.2695 46.4023C94.8086 46.7969 94.1953 46.9961 93.4297 47H90.5996V40.6602H92.0234V42.6758ZM98.4395 47H97.0156V40.6602H98.4395V47ZM92.0234 43.8184V45.8633H93.4121C93.7598 45.8633 94.0332 45.7773 94.2324 45.6055C94.4355 45.4297 94.5371 45.1816 94.5371 44.8613C94.5371 44.541 94.4375 44.2891 94.2383 44.1055C94.043 43.918 93.7773 43.8223 93.4414 43.8184H92.0234ZM102.939 47.1172C102.037 47.1172 101.305 46.834 100.742 46.2676C100.184 45.6973 99.9043 44.9395 99.9043 43.9941V43.8184C99.9043 43.1855 100.025 42.6211 100.268 42.125C100.514 41.625 100.857 41.2363 101.299 40.959C101.74 40.6816 102.232 40.543 102.775 40.543C103.639 40.543 104.305 40.8184 104.773 41.3691C105.246 41.9199 105.482 42.6992 105.482 43.707V44.2812H101.34C101.383 44.8047 101.557 45.2188 101.861 45.5234C102.17 45.8281 102.557 45.9805 103.021 45.9805C103.674 45.9805 104.205 45.7168 104.615 45.1895L105.383 45.9219C105.129 46.3008 104.789 46.5957 104.363 46.8066C103.941 47.0137 103.467 47.1172 102.939 47.1172ZM102.77 41.6855C102.379 41.6855 102.062 41.8223 101.82 42.0957C101.582 42.3691 101.43 42.75 101.363 43.2383H104.076V43.1328C104.045 42.6562 103.918 42.2969 103.695 42.0547C103.473 41.8086 103.164 41.6855 102.77 41.6855ZM114.57 41.791H112.514V47H111.09V41.791H109.057V40.6602H114.57V41.791ZM117.939 47.1172C117.037 47.1172 116.305 46.834 115.742 46.2676C115.184 45.6973 114.904 44.9395 114.904 43.9941V43.8184C114.904 43.1855 115.025 42.6211 115.268 42.125C115.514 41.625 115.857 41.2363 116.299 40.959C116.74 40.6816 117.232 40.543 117.775 40.543C118.639 40.543 119.305 40.8184 119.773 41.3691C120.246 41.9199 120.482 42.6992 120.482 43.707V44.2812H116.34C116.383 44.8047 116.557 45.2188 116.861 45.5234C117.17 45.8281 117.557 45.9805 118.021 45.9805C118.674 45.9805 119.205 45.7168 119.615 45.1895L120.383 45.9219C120.129 46.3008 119.789 46.5957 119.363 46.8066C118.941 47.0137 118.467 47.1172 117.939 47.1172ZM117.77 41.6855C117.379 41.6855 117.062 41.8223 116.82 42.0957C116.582 42.3691 116.43 42.75 116.363 43.2383H119.076V43.1328C119.045 42.6562 118.918 42.2969 118.695 42.0547C118.473 41.8086 118.164 41.6855 117.77 41.6855ZM123.869 42.7461L125.076 40.6602H126.658L124.719 43.7832L126.723 47H125.152L123.887 44.832L122.627 47H121.045L123.049 43.7832L121.115 40.6602H122.686L123.869 42.7461ZM132.998 47H131.574V44.4395H129.107V47H127.684V40.6602H129.107V43.3027H131.574V40.6602H132.998V47ZM134.252 43.7715C134.252 43.1504 134.375 42.5918 134.621 42.0957C134.867 41.5957 135.213 41.2129 135.658 40.9473C136.104 40.6777 136.615 40.543 137.193 40.543C138.049 40.543 138.742 40.8184 139.273 41.3691C139.809 41.9199 140.098 42.6504 140.141 43.5605L140.146 43.8945C140.146 44.5195 140.025 45.0781 139.783 45.5703C139.545 46.0625 139.201 46.4434 138.752 46.7129C138.307 46.9824 137.791 47.1172 137.205 47.1172C136.311 47.1172 135.594 46.8203 135.055 46.2266C134.52 45.6289 134.252 44.834 134.252 43.8418V43.7715ZM135.676 43.8945C135.676 44.5469 135.811 45.0586 136.08 45.4297C136.35 45.7969 136.725 45.9805 137.205 45.9805C137.686 45.9805 138.059 45.793 138.324 45.418C138.594 45.043 138.729 44.4941 138.729 43.7715C138.729 43.1309 138.59 42.623 138.312 42.248C138.039 41.873 137.666 41.6855 137.193 41.6855C136.729 41.6855 136.359 41.8711 136.086 42.2422C135.812 42.6094 135.676 43.1602 135.676 43.8945ZM146.645 40.6602V47H145.221V41.8086H143.428L143.311 44.0176C143.236 45.0801 143.031 45.8438 142.695 46.3086C142.363 46.7695 141.854 47 141.166 47H140.727L140.721 45.8164L141.014 45.7871C141.326 45.7441 141.553 45.5547 141.693 45.2188C141.838 44.8789 141.93 44.2617 141.969 43.3672L142.086 40.6602H146.645ZM147.893 43.7715C147.893 43.1504 148.016 42.5918 148.262 42.0957C148.508 41.5957 148.854 41.2129 149.299 40.9473C149.744 40.6777 150.256 40.543 150.834 40.543C151.689 40.543 152.383 40.8184 152.914 41.3691C153.449 41.9199 153.738 42.6504 153.781 43.5605L153.787 43.8945C153.787 44.5195 153.666 45.0781 153.424 45.5703C153.186 46.0625 152.842 46.4434 152.393 46.7129C151.947 46.9824 151.432 47.1172 150.846 47.1172C149.951 47.1172 149.234 46.8203 148.695 46.2266C148.16 45.6289 147.893 44.834 147.893 43.8418V43.7715ZM149.316 43.8945C149.316 44.5469 149.451 45.0586 149.721 45.4297C149.99 45.7969 150.365 45.9805 150.846 45.9805C151.326 45.9805 151.699 45.793 151.965 45.418C152.234 45.043 152.369 44.4941 152.369 43.7715C152.369 43.1309 152.23 42.623 151.953 42.248C151.68 41.873 151.307 41.6855 150.834 41.6855C150.369 41.6855 150 41.8711 149.727 42.2422C149.453 42.6094 149.316 43.1602 149.316 43.8945ZM159.213 41.8086H156.459V47H155.041V40.6602H159.213V41.8086ZM163.977 40.6602H165.395V47H163.977V42.7695L161.492 47H160.074V40.6602H161.492V44.8906L163.977 40.6602ZM170.867 40.6602H172.285V47H170.867V42.7695L168.383 47H166.965V40.6602H168.383V44.8906L170.867 40.6602Z" fill="#788891"/>
<path d="M32.0668 13.8665C33.1952 13.8665 34.1485 14.5936 34.5073 15.5998H43.4929C43.8517 14.5936 44.805 13.8665 45.9334 13.8665C47.3669 13.8665 48.5334 15.033 48.5334 16.4664C48.5334 17.8999 47.3669 19.0664 45.9334 19.0664C44.805 19.0664 43.8517 18.3392 43.4929 17.3331H34.5064C34.1476 18.3392 33.1943 19.0664 32.0659 19.0664C30.6324 19.0664 29.4659 17.8999 29.4659 16.4664C29.4659 15.033 30.6333 13.8665 32.0668 13.8665ZM45.9334 17.3331C46.411 17.3331 46.8001 16.9448 46.8001 16.4664C46.8001 15.988 46.411 15.5998 45.9334 15.5998C45.4559 15.5998 45.0668 15.988 45.0668 16.4664C45.0668 16.9448 45.4559 17.3331 45.9334 17.3331ZM32.0668 17.3331C32.5443 17.3331 32.9334 16.9448 32.9334 16.4664C32.9334 15.988 32.5443 15.5998 32.0668 15.5998C31.5892 15.5998 31.2001 15.988 31.2001 16.4664C31.2001 16.9448 31.5892 17.3331 32.0668 17.3331Z" fill="#00B2FF"/>
<path d="M25.1333 19.2259V13.8665C25.1333 13.636 25.2243 13.4158 25.3872 13.2538L28.8539 9.78716C29.0159 9.62423 29.2369 9.53323 29.4666 9.53323H32.2261C32.5849 8.52705 33.5382 7.79993 34.6666 7.79993C36.1001 7.79993 37.2666 8.96644 37.2666 10.3999C37.2666 11.8333 36.1001 12.9998 34.6666 12.9998C33.5382 12.9998 32.5849 12.2727 32.2261 11.2665H29.8254L26.8666 14.2253V19.2259C27.8728 19.5847 28.5999 20.538 28.5999 21.6664C28.5999 23.0998 27.4334 24.2663 25.9999 24.2663C24.5665 24.2663 23.3999 23.0998 23.3999 21.6664C23.3999 20.538 24.1271 19.5847 25.1333 19.2259ZM34.6666 11.2665C35.1441 11.2665 35.5333 10.8783 35.5333 10.3999C35.5333 9.92149 35.1441 9.53323 34.6666 9.53323C34.1891 9.53323 33.7999 9.92149 33.7999 10.3999C33.7999 10.8783 34.1891 11.2665 34.6666 11.2665ZM25.9999 22.533C26.4775 22.533 26.8666 22.1448 26.8666 21.6664C26.8666 21.188 26.4775 20.7997 25.9999 20.7997C25.5224 20.7997 25.1333 21.188 25.1333 21.6664C25.1333 22.1448 25.5224 22.533 25.9999 22.533Z" fill="#00B2FF"/>
<path d="M9.53333 22.533C9.93373 22.533 10.3081 22.6309 10.647 22.7938L12.1333 21.3075V12.9998C12.1333 12.7693 12.2243 12.5491 12.3873 12.3871L21.0609 3.7136C20.8979 3.37474 20.8 3.00035 20.8 2.59996C20.8 1.16651 21.9665 0 23.4 0C24.8335 0 26 1.16651 26 2.59996C26 4.0334 24.8335 5.19991 23.4 5.19991C22.9996 5.19991 22.6252 5.10198 22.2863 4.93905L13.8667 13.3586V21.6663C13.8667 21.8968 13.7757 22.117 13.6127 22.279L11.8725 24.0193C12.0354 24.3581 12.1333 24.7325 12.1333 25.1329C12.1333 26.5664 10.9668 27.7329 9.53333 27.7329C8.09986 27.7329 6.93333 26.5664 6.93333 25.1329C6.93333 23.6995 8.09986 22.533 9.53333 22.533ZM23.4 3.46661C23.8775 3.46661 24.2667 3.07835 24.2667 2.59996C24.2667 2.12156 23.8775 1.7333 23.4 1.7333C22.9225 1.7333 22.5333 2.12156 22.5333 2.59996C22.5333 3.07835 22.9225 3.46661 23.4 3.46661ZM9.53333 25.9996C10.0109 25.9996 10.4 25.6113 10.4 25.1329C10.4 24.6545 10.0109 24.2663 9.53333 24.2663C9.0558 24.2663 8.66667 24.6545 8.66667 25.1329C8.66667 25.6113 9.0558 25.9996 9.53333 25.9996Z" fill="#00B2FF"/>
<path d="M1.73328 12.2926V8.66652C1.73328 8.43599 1.82428 8.21586 1.98722 8.0538L8.05388 1.98723C8.21595 1.8243 8.43695 1.7333 8.66662 1.7333H13.1594C13.5182 0.727121 14.4716 0 15.6 0C17.0334 0 18.2 1.16651 18.2 2.59996C18.2 4.0334 17.0334 5.19991 15.6 5.19991C14.4716 5.19991 13.5182 4.47279 13.1594 3.46661H9.02542L3.46662 9.02532V12.2926C4.47282 12.6514 5.19995 13.6047 5.19995 14.7331C5.19995 16.1665 4.03342 17.333 2.59995 17.333C1.16648 17.333 -4.95911e-05 16.1665 -4.95911e-05 14.7331C-4.95911e-05 13.6047 0.727085 12.6514 1.73328 12.2926ZM15.6 3.46661C16.0775 3.46661 16.4666 3.07835 16.4666 2.59996C16.4666 2.12156 16.0775 1.7333 15.6 1.7333C15.1224 1.7333 14.7333 2.12156 14.7333 2.59996C14.7333 3.07835 15.1224 3.46661 15.6 3.46661ZM2.59995 15.5997C3.07748 15.5997 3.46662 15.2115 3.46662 14.7331C3.46662 14.2547 3.07748 13.8664 2.59995 13.8664C2.12242 13.8664 1.73328 14.2547 1.73328 14.7331C1.73328 15.2115 2.12242 15.5997 2.59995 15.5997Z" fill="#00B2FF"/>
<path d="M13.8658 46.9595V34.5066C12.8604 34.1478 12.1333 33.1945 12.1333 32.0661C12.1333 30.6327 13.2998 29.4661 14.7333 29.4661C15.8617 29.4661 16.815 30.1933 17.1738 31.1995H26.1594C26.5182 30.1933 27.4716 29.4661 28.6 29.4661C29.7284 29.4661 30.6817 30.1933 31.0405 31.1995H36.0412L39.2608 27.9798C39.0979 27.641 39 27.2666 39 26.8662C39 25.4327 40.1665 24.2662 41.6 24.2662C43.0334 24.2662 44.2 25.4327 44.2 26.8662C44.2 28.2996 43.0334 29.4661 41.6 29.4661C41.1996 29.4661 40.8252 29.3682 40.4863 29.2053L37.0127 32.6788C36.8506 32.8418 36.6296 32.9328 36.4 32.9328H31.0405C30.6817 33.9389 29.7284 34.6661 28.6 34.6661C27.4716 34.6661 26.5182 33.9389 26.1594 32.9328H17.173C16.9112 33.6668 16.3332 34.2449 15.5991 34.5066V46.9595C16.6053 47.3183 17.3324 48.2716 17.3324 49.4C17.3324 50.8335 16.1659 52 14.7324 52C13.299 52 12.1324 50.8335 12.1324 49.4C12.1324 48.2716 12.8596 47.3183 13.8658 46.9595ZM41.6 27.7328C42.0775 27.7328 42.4666 27.3446 42.4666 26.8662C42.4666 26.3878 42.0775 25.9995 41.6 25.9995C41.1224 25.9995 40.7333 26.3878 40.7333 26.8662C40.7333 27.3446 41.1224 27.7328 41.6 27.7328ZM28.6 32.9328C29.0775 32.9328 29.4666 32.5445 29.4666 32.0661C29.4666 31.5877 29.0775 31.1995 28.6 31.1995C28.1224 31.1995 27.7333 31.5877 27.7333 32.0661C27.7333 32.5445 28.1224 32.9328 28.6 32.9328ZM14.7333 50.2658C15.2108 50.2658 15.6 49.8775 15.6 49.3991C15.6 48.9208 15.2108 48.5325 14.7333 48.5325C14.2558 48.5325 13.8666 48.9208 13.8666 49.3991C13.8666 49.8775 14.2558 50.2658 14.7333 50.2658ZM14.7333 32.9328C15.2108 32.9328 15.6 32.5445 15.6 32.0661C15.6 31.5877 15.2108 31.1995 14.7333 31.1995C14.2558 31.1995 13.8666 31.5877 13.8666 32.0661C13.8666 32.5445 14.2558 32.9328 14.7333 32.9328Z" fill="#00B2FF"/>
<path d="M18.2 17.4925V14.7331C18.2 14.5026 18.291 14.2824 18.4539 14.1204L28.8609 3.7136C28.6979 3.37474 28.6 3.00035 28.6 2.59996C28.6 1.16651 29.7665 0 31.2 0C32.3284 0 33.2817 0.727121 33.6405 1.7333H37.2667C37.7451 1.7333 38.1333 2.1207 38.1333 2.59996V4.84112L41.353 8.06073C41.6919 7.8978 42.0663 7.79987 42.4667 7.79987C43.9001 7.79987 45.0667 8.96638 45.0667 10.3998C45.0667 11.8333 43.9001 12.9998 42.4667 12.9998C41.0332 12.9998 39.8667 11.8333 39.8667 10.3998C39.8667 9.99943 39.9646 9.62504 40.1275 9.28618L36.6539 5.81264C36.491 5.65057 36.4 5.43044 36.4 5.19991V3.46661H33.6405C33.2817 4.47279 32.3284 5.19991 31.2 5.19991C30.7996 5.19991 30.4252 5.10198 30.0863 4.93905L19.9333 15.0919V17.4925C20.9395 17.8513 21.6667 18.8046 21.6667 19.933C21.6667 21.3664 20.5001 22.533 19.0667 22.533C17.6332 22.533 16.4667 21.3664 16.4667 19.933C16.4667 18.8046 17.1938 17.8513 18.2 17.4925ZM42.4667 11.2665C42.9442 11.2665 43.3333 10.8782 43.3333 10.3998C43.3333 9.92143 42.9442 9.53317 42.4667 9.53317C41.9891 9.53317 41.6 9.92143 41.6 10.3998C41.6 10.8782 41.9891 11.2665 42.4667 11.2665ZM31.2 3.46661C31.6775 3.46661 32.0667 3.07835 32.0667 2.59996C32.0667 2.12156 31.6775 1.7333 31.2 1.7333C30.7225 1.7333 30.3333 2.12156 30.3333 2.59996C30.3333 3.07835 30.7225 3.46661 31.2 3.46661ZM19.0667 20.7997C19.5442 20.7997 19.9333 20.4114 19.9333 19.933C19.9333 19.4546 19.5442 19.0663 19.0667 19.0663C18.5891 19.0663 18.2 19.4546 18.2 19.933C18.2 20.4114 18.5891 20.7997 19.0667 20.7997Z" fill="#00B2FF"/>
<path d="M20.8 24.2663C21.9284 24.2663 22.8817 24.9934 23.2405 25.9996H33.4412L38.3873 21.0536C38.5493 20.8906 38.7703 20.7997 39 20.7997H48.1745L50.2667 18.7076V11.6253L43.5803 4.93905C43.2415 5.10198 42.8671 5.19991 42.4667 5.19991C41.0332 5.19991 39.8667 4.0334 39.8667 2.59996C39.8667 1.16651 41.0332 0 42.4667 0C43.9001 0 45.0667 1.16651 45.0667 2.59996C45.0667 3.00035 44.9687 3.37474 44.8058 3.7136L51.7461 10.6538C51.909 10.8158 52 11.0359 52 11.2665V19.0663C52 19.2969 51.909 19.517 51.7461 19.6791L49.1461 22.279C48.984 22.442 48.763 22.533 48.5333 22.533H39.3588L34.4127 27.4789C34.2507 27.6419 34.0297 27.7329 33.8 27.7329H23.2405C22.8817 28.7391 21.9284 29.4662 20.8 29.4662C19.3665 29.4662 18.2 28.2997 18.2 26.8662C18.2 25.4328 19.3665 24.2663 20.8 24.2663ZM42.4667 1.7333C41.9891 1.7333 41.6 2.12156 41.6 2.59996C41.6 3.07835 41.9891 3.46661 42.4667 3.46661C42.9442 3.46661 43.3333 3.07835 43.3333 2.59996C43.3333 2.12156 42.9442 1.7333 42.4667 1.7333ZM20.8 27.7329C21.2775 27.7329 21.6667 27.3446 21.6667 26.8662C21.6667 26.3878 21.2775 25.9996 20.8 25.9996C20.3225 25.9996 19.9333 26.3878 19.9333 26.8662C19.9333 27.3446 20.3225 27.7329 20.8 27.7329Z" fill="#00B2FF"/>
<path d="M2.59997 20.7997C3.00037 20.7997 3.37477 20.8976 3.71363 21.0606L6.9333 17.841V12.8404C5.9271 12.4816 5.19997 11.5283 5.19997 10.3999C5.19997 8.96644 6.3665 7.79993 7.79997 7.79993C9.23343 7.79993 10.4 8.96644 10.4 10.3999C10.4 11.5283 9.67283 12.4816 8.66663 12.8404V18.1998C8.66663 18.4303 8.57563 18.6504 8.4127 18.8125L4.9391 22.286C5.10204 22.6249 5.19997 22.9993 5.19997 23.3997C5.19997 24.528 4.47283 25.4814 3.46663 25.8402V26.5075L10.146 33.1868C10.309 33.3488 10.4 33.569 10.4 33.7995V34.8256C11.4062 35.1844 12.1333 36.1377 12.1333 37.2661C12.1333 38.3945 11.4062 39.3478 10.4 39.7066V41.7597C11.4062 42.1185 12.1333 43.0718 12.1333 44.2002C12.1333 45.6336 10.9668 46.8001 9.5333 46.8001C8.09983 46.8001 6.9333 45.6336 6.9333 44.2002C6.9333 43.0718 7.66043 42.1185 8.66663 41.7597V39.7066C7.66043 39.3478 6.9333 38.3945 6.9333 37.2661C6.9333 36.1377 7.66043 35.1844 8.66663 34.8256V34.1583L1.98723 27.479C1.8243 27.3169 1.7333 27.0968 1.7333 26.8663V25.8402C0.7271 25.4814 -3.24249e-05 24.528 -3.24249e-05 23.3997C-3.24249e-05 21.9662 1.1665 20.7997 2.59997 20.7997ZM7.79997 11.2665C8.2775 11.2665 8.66663 10.8783 8.66663 10.3999C8.66663 9.92149 8.2775 9.53323 7.79997 9.53323C7.32243 9.53323 6.9333 9.92149 6.9333 10.3999C6.9333 10.8783 7.32243 11.2665 7.79997 11.2665ZM9.5333 45.066C10.0108 45.066 10.4 44.6777 10.4 44.1993C10.4 43.7209 10.0108 43.3327 9.5333 43.3327C9.05577 43.3327 8.66663 43.7209 8.66663 44.1993C8.66663 44.6777 9.05577 45.066 9.5333 45.066ZM9.5333 38.1328C10.0108 38.1328 10.4 37.7445 10.4 37.2661C10.4 36.7877 10.0108 36.3995 9.5333 36.3995C9.05577 36.3995 8.66663 36.7877 8.66663 37.2661C8.66663 37.7445 9.05577 38.1328 9.5333 38.1328ZM2.59997 24.2663C3.0775 24.2663 3.46663 23.8781 3.46663 23.3997C3.46663 22.9213 3.0775 22.533 2.59997 22.533C2.12243 22.533 1.7333 22.9213 1.7333 23.3997C1.7333 23.8781 2.12243 24.2663 2.59997 24.2663Z" fill="#00B2FF"/>
</symbol><symbol id="footer-minus" viewBox="0 0 16 2">
<path d="M0 0.5H16V1.5H0V0.5Z" fill="currentColor"/>
</symbol><symbol id="footer-plus" viewBox="0 0 16 16">
<path fill-rule="evenodd" clip-rule="evenodd" d="M8.5 7.5V0H7.5V7.5H0V8.5H7.5V16H8.5V8.5H16V7.5H8.5Z" fill="currentColor"/>
</symbol><symbol id="form-button" viewBox="0 0 17 17">
<path fill-rule="evenodd" clip-rule="evenodd" d="M0.146522 0.853553C-0.04874 0.658291 -0.04874 0.341709 0.146522 0.146447C0.341784 -0.0488155 0.658367 -0.0488156 0.853629 0.146447L8.27821 7.57103L15.7028 0.14645C15.8981 -0.0488124 16.2146 -0.0488125 16.4099 0.14645C16.6052 0.341712 16.6052 0.658294 16.4099 0.853556L8.98532 8.27814L16.41 15.7028C16.6052 15.8981 16.6052 16.2146 16.41 16.4099C16.2147 16.6052 15.8981 16.6052 15.7029 16.4099L8.27821 8.98525L0.853553 16.4099C0.658291 16.6052 0.341709 16.6052 0.146447 16.4099C-0.0488155 16.2146 -0.0488156 15.8981 0.146447 15.7028L7.57111 8.27814L0.146522 0.853553Z" fill="currentColor"/>
</symbol><symbol id="icon-checkbox-checked" viewBox="0 0 9 6">
<path d="M0.5 2L3.5 5L8 0.5" stroke="currentColor"/>
</symbol><symbol id="icon-checkbox" viewBox="0 0 16 16">
<rect x="0.5" y="0.5" width="15" height="15" stroke="currentColor"/>
</symbol><symbol id="icon-cost" viewBox="0 0 33 32">
<path d="M10.7945 8.43992C10.6776 8.323 10.5155 8.25574 10.3502 8.25574C10.1849 8.25574 10.0227 8.323 9.90583 8.43992C9.78899 8.55684 9.72168 8.71902 9.72168 8.88434C9.72168 9.04966 9.78893 9.21185 9.90583 9.32877C10.0227 9.44575 10.1849 9.51295 10.3502 9.51295C10.5155 9.51295 10.6776 9.44569 10.7945 9.32877C10.9114 9.21185 10.9787 9.04966 10.9787 8.88434C10.9787 8.71902 10.9114 8.55684 10.7945 8.43992Z" fill="currentColor"/>
<path d="M32.6111 2.61363L31.8339 1.83982L32.6108 1.06715C32.8563 0.823046 32.8563 0.427236 32.6108 0.183075C32.3653 -0.0610248 31.9675 -0.0610248 31.7219 0.183075L30.9455 0.955253L30.1798 0.192763C30.0619 0.0754958 29.9021 0.0094858 29.7355 0.0094233L19.0977 0.00354741C19.0971 0.00354741 19.0965 0.00354741 19.0959 0.00354741C18.2559 0.00354741 17.4662 0.328846 16.8722 0.919623L11.5638 6.19917C11.3184 6.44327 11.3184 6.83908 11.5638 7.08324C11.8093 7.32734 12.2071 7.32734 12.4527 7.08324L17.7611 1.80369C18.1177 1.44902 18.5917 1.2538 19.0959 1.2538C19.0963 1.2538 19.0967 1.2538 19.097 1.2538L29.4744 1.25955L30.0568 1.83939L27.7247 4.15874C26.7358 3.56965 25.4321 3.6981 24.5809 4.54461C24.0946 5.02831 23.8268 5.67134 23.8268 6.35532C23.8268 7.0393 24.0946 7.68233 24.5809 8.16603C25.0828 8.66523 25.7422 8.91483 26.4015 8.91483C27.0608 8.91483 27.7201 8.66523 28.2221 8.16603C29.072 7.32071 29.202 6.02664 28.6128 5.04362L30.9452 2.72396L31.5378 3.31411L31.5321 13.6211C31.5317 14.1222 31.3354 14.5933 30.9791 14.9477L15.642 30.2013C15.2855 30.5559 14.8114 30.7512 14.3072 30.7512C13.803 30.7512 13.3289 30.5559 12.9724 30.2013L2.42522 19.7114C2.0686 19.3568 1.87225 18.8853 1.87225 18.3838C1.87225 17.8824 2.0686 17.4109 2.42522 17.0562L9.20017 10.3181C9.4456 10.074 9.4456 9.67819 9.20017 9.43403C8.95468 9.18993 8.55683 9.18993 8.31127 9.43403L1.53632 16.1722C0.942374 16.7629 0.615234 17.5484 0.615234 18.3838C0.615234 19.2193 0.942374 20.0048 1.53632 20.5955L12.0835 31.0854C12.6966 31.6951 13.5018 32 14.3072 32C15.1126 32 15.9178 31.6951 16.5309 31.0854L31.8679 15.8316C32.4614 15.2413 32.7885 14.4565 32.789 13.6217L32.7949 3.0557C32.795 2.88992 32.7289 2.7309 32.6111 2.61363ZM27.3332 7.2819C27.0843 7.52943 26.7534 7.66577 26.4015 7.66577C26.0495 7.66577 25.7187 7.52943 25.4698 7.2819C24.956 6.77094 24.956 5.93951 25.4698 5.42855C25.7267 5.17302 26.064 5.04531 26.4015 5.04531C26.5286 5.04531 26.6556 5.0635 26.7785 5.09975L26.053 5.82124C25.8076 6.06534 25.8076 6.46115 26.053 6.70531C26.1758 6.82739 26.3366 6.8884 26.4974 6.8884C26.6583 6.8884 26.8191 6.82739 26.9419 6.70531L27.6653 5.98582C27.7959 6.43083 27.6854 6.93165 27.3332 7.2819Z" fill="currentColor"/>
<path d="M27.4632 13.2023L20.1386 5.87659C19.1683 4.90615 17.5895 4.90627 16.6193 5.87659L5.02826 17.4694C4.5582 17.9395 4.29932 18.5645 4.29932 19.2293C4.29932 19.8941 4.55814 20.5192 5.0282 20.9893L12.3528 28.3149C12.8229 28.7851 13.4478 29.044 14.1125 29.044C14.7772 29.044 15.4022 28.7851 15.8721 28.315L27.4632 16.7221C27.9333 16.252 28.1921 15.6271 28.1921 14.9622C28.1921 14.2974 27.9333 13.6724 27.4632 13.2023ZM26.5743 15.8331L14.9833 27.4261C14.7507 27.6587 14.4414 27.7868 14.1125 27.7868C13.7837 27.7868 13.4744 27.6587 13.2418 27.426L5.9171 20.1003C5.68449 19.8677 5.5564 19.5584 5.5564 19.2294C5.55634 18.9004 5.68449 18.5911 5.9171 18.3585L17.5082 6.76562C17.7483 6.52549 18.0636 6.40543 18.379 6.40543C18.6943 6.40543 19.0097 6.52556 19.2497 6.76562L26.5743 14.0913C26.8069 14.324 26.935 14.6332 26.935 14.9622C26.935 15.2912 26.8069 15.6005 26.5743 15.8331Z" fill="currentColor"/>
<path d="M21.1098 13.1218C21.3553 12.8764 21.3553 12.4783 21.1098 12.2328C20.8643 11.9873 20.4665 11.9873 20.2209 12.2328L19.859 12.5948C18.8927 11.9978 17.6528 12.0779 16.869 12.8617C16.412 13.3188 16.1782 13.9395 16.2106 14.6094C16.242 15.2563 16.5205 15.8739 16.9949 16.3483C16.9949 16.3484 16.995 16.3484 16.995 16.3485C17.5005 16.8543 17.5569 17.6207 17.1208 18.057C16.6844 18.4933 15.918 18.4368 15.4123 17.9311C14.9066 17.4253 14.8501 16.6587 15.2864 16.2224C15.5318 15.9769 15.5318 15.5789 15.2864 15.3333C15.0409 15.0879 14.643 15.0879 14.3975 15.3333C13.6137 16.1172 13.5337 17.3573 14.1306 18.3239L13.7012 18.7533C13.4557 18.9987 13.4557 19.3968 13.7012 19.6423C13.8242 19.7652 13.9851 19.8265 14.1459 19.8265C14.3068 19.8265 14.4676 19.7651 14.5903 19.6424L15.02 19.2127C15.4422 19.4735 15.9165 19.6056 16.3823 19.6056C16.9825 19.6056 17.5684 19.3873 18.0097 18.946C18.9359 18.0196 18.8796 16.456 17.8843 15.4599C17.8841 15.4597 17.884 15.4596 17.8838 15.4594C17.6308 15.2063 17.4825 14.8829 17.4662 14.5485C17.4512 14.2372 17.5547 13.9539 17.7579 13.7508C18.1941 13.3144 18.9604 13.3709 19.4662 13.8765C19.4662 13.8765 19.4662 13.8766 19.4663 13.8767C19.4664 13.8767 19.4664 13.8767 19.4664 13.8767C19.972 14.3826 20.0284 15.149 19.5921 15.5853C19.3467 15.8308 19.3467 16.2288 19.5921 16.4743C19.7149 16.5971 19.8757 16.6584 20.0365 16.6584C20.1974 16.6584 20.3582 16.5971 20.481 16.4743C21.2647 15.6904 21.3448 14.4503 20.7479 13.4838L21.1098 13.1218Z" fill="currentColor"/>
<path d="M14.7493 23.5431L11.5212 20.3145C11.2758 20.0692 10.8779 20.0691 10.6323 20.3145C10.3869 20.56 10.3869 20.958 10.6323 21.2035L13.8605 24.4322C13.9832 24.5549 14.1441 24.6163 14.3049 24.6163C14.4657 24.6163 14.6266 24.5549 14.7493 24.4322C14.9947 24.1867 14.9947 23.7887 14.7493 23.5431Z" fill="currentColor"/>
<path d="M9.79888 18.5923C9.68204 18.4755 9.52045 18.4081 9.35458 18.4081C9.18929 18.4081 9.02776 18.4754 8.91023 18.5923C8.79333 18.7092 8.72607 18.8714 8.72607 19.0374C8.72607 19.2027 8.79326 19.3649 8.91023 19.4818C9.02713 19.5987 9.18929 19.666 9.35458 19.666C9.52051 19.666 9.68204 19.5987 9.79888 19.4818C9.91641 19.3643 9.98366 19.2027 9.98366 19.0374C9.98366 18.8714 9.91641 18.7099 9.79888 18.5923Z" fill="currentColor"/>
</symbol><symbol id="icon-security" viewBox="0 0 31 26">
<path d="M15.7697 8.18542C15.443 8.18542 15.1777 8.45125 15.1777 8.77924C15.1777 9.107 15.443 9.37306 15.7697 9.37306C16.0964 9.37306 16.3617 9.107 16.3617 8.77924C16.3617 8.45125 16.0964 8.18542 15.7697 8.18542Z" fill="currentColor"/>
<path d="M29.148 11.7484H26.8446C25.6304 8.27037 23.8686 2.17193 20.6771 0.445918C19.0809 -0.416274 17.5721 0.185892 17.0046 1.40924C16.7632 1.9293 16.2811 2.20278 15.7696 2.20278C15.2511 2.20278 14.7729 1.92327 14.5345 1.40971C13.9872 0.228109 12.5144 -0.429264 10.9742 0.32066C7.73154 1.9003 5.91819 8.24415 4.69448 11.7484H2.39113C1.40999 11.7484 0.615234 12.5454 0.615234 13.5298C0.615234 14.5119 1.41184 15.3113 2.39113 15.3113H29.148C30.1291 15.3113 30.9239 14.514 30.9239 13.5298C30.9239 12.5475 30.1273 11.7484 29.148 11.7484ZM6.77399 9.3731H13.4017C13.7287 9.3731 13.9937 9.10704 13.9937 8.77928C13.9937 8.45129 13.7287 8.18547 13.4017 8.18547H7.18791C8.97236 3.24079 10.6393 1.80404 11.4912 1.38906C12.4206 0.936744 13.1855 1.3153 13.4611 1.91051C13.8954 2.84623 14.7937 3.39041 15.7696 3.39041C16.7477 3.39041 17.6449 2.84414 18.078 1.91051C18.3617 1.29837 19.1306 0.959476 20.1154 1.49136C20.9712 1.95435 22.6331 3.43889 24.351 8.18547H18.1374C17.8105 8.18547 17.5455 8.45129 17.5455 8.77928C17.5455 9.10727 17.8105 9.3731 18.1374 9.3731H24.7654C25.0646 10.2388 25.3754 11.132 25.5904 11.7484H5.94894C6.1633 11.1337 6.47338 10.2425 6.77399 9.3731ZM29.148 14.1236H2.39113C2.06463 14.1236 1.79917 13.8571 1.79917 13.5298C1.79917 13.2018 2.06416 12.936 2.39113 12.936H29.148C29.4745 12.936 29.74 13.2023 29.74 13.5298C29.74 13.8576 29.4747 14.1236 29.148 14.1236Z" fill="currentColor"/>
<path d="M14.5859 17.6866H5.11443C4.78746 17.6866 4.52246 17.9525 4.52246 18.2804V20.6557C4.52246 23.6025 6.91252 26.0001 9.85015 26.0001C12.076 26.0001 14.0462 24.6266 14.8298 22.5575C15.425 22.2852 16.1146 22.2852 16.7098 22.5575C17.4935 24.6266 19.4636 25.9998 21.6895 25.9998C24.6271 25.9998 27.0172 23.6025 27.0172 20.6555V18.2802C27.0172 17.9522 26.7522 17.6864 26.4252 17.6864H16.9537C16.6268 17.6864 16.3618 17.9522 16.3618 18.2802V18.874H15.1778V18.2802C15.1778 17.9525 14.9129 17.6866 14.5859 17.6866ZM9.85015 24.8124C7.5653 24.8124 5.70639 22.9477 5.70639 20.6557V18.8743H13.9939V20.6557C13.9939 22.9537 12.1449 24.8124 9.85015 24.8124ZM17.5457 18.8743H25.8332V20.6557C25.8332 22.9477 23.9743 24.8124 21.6895 24.8124C19.3889 24.8124 17.5457 22.9482 17.5457 20.6557V18.8743ZM16.3618 20.0619V20.6557C16.3618 20.8455 16.3726 21.0345 16.3923 21.2222C15.9809 21.1468 15.5587 21.1468 15.1473 21.2222C15.167 21.0345 15.1778 20.8455 15.1778 20.6557V20.0619H16.3618Z" fill="currentColor"/>
<path d="M9.84997 22.437C8.87068 22.437 8.07407 21.6377 8.07407 20.6556C8.07407 20.3276 7.80907 20.0618 7.4821 20.0618C7.15513 20.0618 6.89014 20.3276 6.89014 20.6556C6.89014 22.2925 8.2179 23.6247 9.84997 23.6247C10.1769 23.6247 10.4419 23.3586 10.4419 23.0308C10.4419 22.7029 10.1769 22.437 9.84997 22.437Z" fill="currentColor"/>
<path d="M21.6896 23.6247C23.3217 23.6247 24.6495 22.2925 24.6495 20.6556C24.6495 20.3276 24.3845 20.0618 24.0575 20.0618C23.7305 20.0618 23.4655 20.3276 23.4655 20.6556C23.4655 21.6377 22.6689 22.437 21.6896 22.437C21.3627 22.437 21.0977 22.7029 21.0977 23.0308C21.0977 23.3586 21.3627 23.6247 21.6896 23.6247Z" fill="currentColor"/>
</symbol><symbol id="icon-supplier" viewBox="0 0 32 32">
<path d="M28.5547 25.5023C28.8947 25.0283 29.0958 24.4466 29.0958 23.8181V20.0625C29.0958 19.7173 28.8184 19.4375 28.4763 19.4375H25.7076C24.4276 19.4375 23.3863 20.488 23.3863 21.7793V23.8181C23.3863 24.4462 23.5872 25.0274 23.9268 25.5013C23.5033 25.5706 23.0958 25.7075 22.7158 25.9079C21.8551 24.6121 20.4448 23.7185 18.8243 23.5678C18.818 23.5659 18.8115 23.5646 18.8052 23.5631C19.385 22.9099 19.7384 22.0481 19.7384 21.1044V16C19.7384 15.6548 19.461 15.375 19.1189 15.375H15.3558C13.7389 15.375 12.4235 16.7021 12.4235 18.3333V21.1043C12.4235 22.0481 12.7769 22.9098 13.3567 23.563C13.3503 23.5646 13.3439 23.5659 13.3376 23.5677C11.7168 23.7184 10.3066 24.6122 9.44586 25.9081C9.06573 25.7078 8.65821 25.5708 8.23489 25.5015C8.57451 25.0276 8.77554 24.4463 8.77554 23.8181V20.0625C8.77554 19.7173 8.49812 19.4375 8.15602 19.4375H5.38726C4.10733 19.4375 3.06603 20.488 3.06603 21.7793V23.8181C3.06603 24.4466 3.26719 25.0283 3.60719 25.5023C1.68958 25.8185 0.221191 27.5009 0.221191 29.5235V31.375C0.221191 31.7202 0.498613 32 0.840713 32H31.3212C31.6633 32 31.9407 31.7202 31.9407 31.375V29.5235C31.9407 27.5009 30.4723 25.8185 28.5547 25.5023ZM4.30508 21.7793C4.30508 21.1773 4.79053 20.6875 5.38726 20.6875H7.5365V21.4487C7.5365 21.8219 7.23554 22.1256 6.86562 22.1256H4.30508V21.7793ZM4.30508 23.3755H6.86562C7.10166 23.3755 7.32766 23.3318 7.5365 23.2524V23.8181C7.5365 24.7169 6.81172 25.4481 5.92079 25.4481C5.02985 25.4481 4.30508 24.7169 4.30508 23.8181V23.3755ZM6.32019 26.6981L5.92079 27.1011L5.52138 26.6981H6.32019ZM8.55698 28.8585V30.75H1.46023V29.5235C1.46023 28.1216 2.47767 26.9555 3.80655 26.7359L5.48272 28.4269C5.59895 28.5441 5.75649 28.61 5.92079 28.61C6.08509 28.61 6.24263 28.5441 6.35885 28.4269L8.03552 26.7353C8.33166 26.784 8.61645 26.8803 8.88185 27.0211C8.67196 27.594 8.55698 28.213 8.55698 28.8585ZM16.081 23.5442C14.7475 23.5442 13.6626 22.4497 13.6626 21.1044V20.2783H17.3651C17.7756 20.2783 18.1622 20.1725 18.4994 19.9866V21.1044C18.4994 22.4497 17.4145 23.5442 16.081 23.5442ZM17.1609 24.7941L16.0809 25.8836L15.001 24.7941H17.1609ZM13.6625 18.3333H13.6625C13.6625 17.3913 14.4221 16.625 15.3558 16.625H18.4994V17.884C18.4994 18.515 17.9905 19.0284 17.365 19.0284H13.6625V18.3333ZM22.3658 30.75H21.161H11.0009H9.79608V29.5H13.83C14.1721 29.5 14.4496 29.2202 14.4496 28.875C14.4496 28.5298 14.1721 28.25 13.83 28.25H9.84137C10.1069 26.4737 11.5163 25.0715 13.2858 24.8316L15.6429 27.2095C15.7639 27.3315 15.9224 27.3925 16.0809 27.3925C16.2395 27.3925 16.398 27.3315 16.519 27.2095L18.876 24.8316C20.8434 25.0983 22.3658 26.8019 22.3658 28.8585V30.75ZM24.6254 21.7793C24.6254 21.1773 25.1108 20.6875 25.7076 20.6875H27.8568V21.4487C27.8568 21.8219 27.5558 22.1256 27.1859 22.1256H24.6254V21.7793ZM24.6254 23.3755H27.1859C27.422 23.3755 27.648 23.3318 27.8568 23.2524V23.8181C27.8568 24.7169 27.132 25.4481 26.2411 25.4481C25.3502 25.4481 24.6254 24.7169 24.6254 23.8181V23.3755ZM26.6405 26.6981L26.2411 27.1011L25.8417 26.6981H26.6405ZM23.6048 30.75V28.8585C23.6048 28.2129 23.4899 27.594 23.2799 27.021C23.5452 26.88 23.8299 26.7838 24.1261 26.7352L25.803 28.4269C25.9192 28.5441 26.0767 28.61 26.241 28.61C26.4053 28.61 26.5629 28.5441 26.6791 28.4269L28.3553 26.7359C29.6841 26.9556 30.7016 28.1216 30.7016 29.5235V30.75H23.6048Z" fill="currentColor"/>
<path d="M19.1336 4.08356C18.8917 3.8395 18.4995 3.8395 18.2575 4.08356L15.2175 7.1505L13.9033 5.82469C13.6613 5.58056 13.2691 5.58056 13.0271 5.82462C12.7852 6.06869 12.7852 6.46444 13.0271 6.70856L14.7794 8.47632C14.8956 8.5935 15.0532 8.65938 15.2175 8.65938C15.3818 8.65938 15.5393 8.5935 15.6555 8.47632L19.1336 4.96744C19.3756 4.72337 19.3756 4.32762 19.1336 4.08356Z" fill="currentColor"/>
<path d="M18.6144 0.541883C18.3019 0.40132 17.9356 0.542883 17.7962 0.858133C17.6568 1.17338 17.7972 1.54295 18.1097 1.68351C19.9063 2.49182 21.0671 4.29601 21.0671 6.27989C21.0671 9.05339 18.8305 11.3098 16.0813 11.3098C13.3321 11.3098 11.0954 9.05339 11.0954 6.27989C11.0954 4.30626 12.2479 2.50582 14.0315 1.69313C14.3433 1.55107 14.482 1.18082 14.3411 0.866258C14.2003 0.551633 13.8331 0.41182 13.5215 0.553883C11.2951 1.56838 9.85645 3.81595 9.85645 6.27983C9.85638 9.74264 12.6489 12.5598 16.0813 12.5598C19.5137 12.5598 22.3062 9.74264 22.3062 6.27989C22.3062 3.8032 20.857 1.55088 18.6144 0.541883Z" fill="currentColor"/>
<path d="M16.1031 0H16.0809C15.7388 0 15.4614 0.279813 15.4614 0.625001C15.4614 0.970189 15.7388 1.25 16.0809 1.25H16.0973C16.0983 1.25 16.0992 1.25 16.1003 1.25C16.4411 1.25 16.7181 0.972126 16.7197 0.627938C16.7213 0.28275 16.4453 0.001625 16.1031 0Z" fill="currentColor"/>
<path d="M16.5189 28.433C16.4037 28.3168 16.2439 28.2499 16.0809 28.2499C15.918 28.2499 15.7582 28.3168 15.6429 28.433C15.5277 28.5493 15.4614 28.7105 15.4614 28.8749C15.4614 29.0393 15.5277 29.2005 15.6429 29.3168C15.7582 29.433 15.918 29.4999 16.0809 29.4999C16.2439 29.4999 16.4037 29.433 16.5189 29.3168C16.6341 29.2005 16.7005 29.0393 16.7005 28.8749C16.7005 28.7105 16.6342 28.5493 16.5189 28.433Z" fill="currentColor"/>
</symbol><symbol id="icon-time" viewBox="0 0 30 37">
<path d="M3.84612 11.9991L2.34001 10.4847C1.52177 9.66241 1.52177 8.32386 2.34001 7.50101C3.15825 6.67843 4.48973 6.67843 5.30797 7.50101L6.91603 9.1176C8.5935 7.94307 10.5057 7.13011 12.5092 6.73998V4.64204H11.11C10.7235 4.64204 10.4104 4.32719 10.4104 3.9387V2.11002C10.4104 0.946487 11.3518 0 12.5092 0H18.1063C19.2637 0 20.2052 0.946487 20.2052 2.11002V3.9387C20.2052 4.32719 19.892 4.64204 19.5055 4.64204H18.1063V6.73998C20.1095 7.12984 22.022 7.94307 23.6995 9.1176L25.3076 7.50101C26.1255 6.67843 27.457 6.67843 28.2755 7.50101C29.0938 8.32359 29.0938 9.66214 28.2755 10.4847L26.7694 11.9991C28.8571 14.6133 30 17.8695 30 21.2409C30 29.3851 23.409 36.011 15.3078 36.011C7.20654 36.011 0.615528 29.3851 0.615528 21.2409C0.615528 17.8695 1.75844 14.6133 3.84612 11.9991ZM4.31865 8.49558C4.04563 8.22139 3.60207 8.22166 3.32933 8.49558C3.05685 8.76977 3.05685 9.21595 3.32933 9.49015L4.77505 10.9433C5.10081 10.607 5.44243 10.2863 5.79771 9.98276L4.31865 8.49558ZM18.8059 2.11002C18.8059 1.72208 18.4922 1.40668 18.1063 1.40668H12.5092C12.1234 1.40668 11.8096 1.72208 11.8096 2.11002V3.23536H18.8059V2.11002ZM13.9085 4.64204V6.53722C14.8358 6.44985 15.7795 6.44985 16.707 6.53722V4.64204H13.9085ZM27.2862 8.49558C27.0135 8.22166 26.5696 8.22139 26.2969 8.49558L24.8178 9.98276C25.1731 10.2863 25.5147 10.607 25.8405 10.9433L27.2862 9.49015C27.5587 9.21595 27.5587 8.76977 27.2862 8.49558ZM15.3078 34.6043C22.6375 34.6043 28.6007 28.6095 28.6007 21.2409C28.6007 17.9904 27.4269 14.8586 25.2958 12.4219C24.7088 11.7507 24.0537 11.1375 23.3489 10.5985C21.5826 9.24727 19.4919 8.35793 17.3028 8.02632C16.6477 7.92769 15.9765 7.87741 15.3078 7.87741C14.639 7.87741 13.9678 7.92769 13.313 8.02632C11.1236 8.35793 9.03296 9.24727 7.26639 10.5985C6.56184 11.1375 5.90676 11.7507 5.31972 12.4219C3.18858 14.8586 2.01479 17.9904 2.01479 21.2409C2.01479 28.6095 7.97804 34.6043 15.3078 34.6043Z" fill="currentColor"/>
<path d="M15.3074 23.3508C14.15 23.3508 13.2085 22.4043 13.2085 21.2408C13.2085 20.324 13.7933 19.542 14.6077 19.2516V14.2074C14.6077 13.8189 14.9209 13.504 15.3074 13.504C15.6938 13.504 16.007 13.8189 16.007 14.2074V19.2516C16.8214 19.542 17.4062 20.324 17.4062 21.2408C17.4062 22.4043 16.4648 23.3508 15.3074 23.3508ZM15.3074 20.5374C14.9215 20.5374 14.6077 20.8528 14.6077 21.2408C14.6077 21.6287 14.9215 21.9441 15.3074 21.9441C15.6932 21.9441 16.007 21.6287 16.007 21.2408C16.007 20.8528 15.6932 20.5374 15.3074 20.5374Z" fill="currentColor"/>
<path d="M7.85482 13.8205C7.86575 13.8076 7.87668 13.7947 7.88898 13.7826C7.9021 13.7692 7.91603 13.7571 7.92997 13.745C9.16307 12.5185 10.6864 11.6111 12.3396 11.1204C12.7104 11.0105 13.0993 11.2231 13.2086 11.5957C13.3179 11.9682 13.1064 12.3595 12.7358 12.4694C11.5109 12.8331 10.3683 13.4617 9.39428 14.3011L9.86625 14.7755C10.1393 15.0503 10.1393 15.4956 9.86625 15.7704C9.72961 15.9078 9.5506 15.9764 9.37132 15.9764C9.19231 15.9764 9.01331 15.9078 8.87666 15.7704L8.40359 15.2948C7.1377 16.7746 6.38587 18.5961 6.23938 20.5374H6.91223C7.29866 20.5374 7.61186 20.8526 7.61186 21.2408C7.61186 21.6293 7.29866 21.9441 6.91223 21.9441H6.23938C6.38587 23.8857 7.1377 25.707 8.40359 27.1868L8.87666 26.7112C9.14995 26.4367 9.59296 26.4367 9.86625 26.7112C10.1395 26.9859 10.1395 27.4313 9.86625 27.706L9.39318 28.1816C10.8651 29.4542 12.6771 30.21 14.6082 30.3576V29.6809C14.6082 29.2924 14.9214 28.9775 15.3078 28.9775C15.6942 28.9775 16.0074 29.2924 16.0074 29.6809V30.3573C17.9385 30.21 19.7504 29.4542 21.2224 28.1816L20.7493 27.706C20.476 27.4313 20.476 26.9859 20.7493 26.7112C21.0226 26.4367 21.4656 26.4367 21.7389 26.7112L22.212 27.1868C23.4779 25.707 24.2297 23.8854 24.3762 21.9441H23.7034C23.3169 21.9441 23.0037 21.6293 23.0037 21.2408C23.0037 20.8523 23.3169 20.5374 23.7034 20.5374H24.3762C24.2297 18.5961 23.4779 16.7746 22.212 15.2948L21.7389 15.7704C21.6023 15.9078 21.4233 15.9764 21.2443 15.9764C21.065 15.9764 20.886 15.9078 20.7493 15.7704C20.4763 15.4956 20.4763 15.0503 20.7493 14.7755L21.2213 14.3011C20.2473 13.4615 19.1047 12.8331 17.8798 12.4694C17.5092 12.3595 17.2976 11.9682 17.407 11.5957C17.5163 11.2231 17.9049 11.0108 18.276 11.1204C19.9289 11.6108 21.4517 12.518 22.6845 13.7439C22.699 13.7563 22.7132 13.7689 22.7266 13.7824C22.7386 13.7944 22.7493 13.8071 22.7602 13.8197C24.7222 15.8105 25.8022 18.4436 25.8022 21.2408C25.8022 24.0377 24.7222 26.6705 22.7608 28.661C22.7498 28.6739 22.7389 28.6868 22.7266 28.6989C22.7146 28.7113 22.702 28.722 22.6894 28.733C20.7092 30.7051 18.0902 31.7909 15.3078 31.7909C12.5257 31.7909 9.9067 30.7054 7.92669 28.7335C7.91385 28.7223 7.901 28.7113 7.88898 28.6989C7.87695 28.6871 7.86629 28.6742 7.85536 28.6618C5.89339 26.6711 4.81334 24.0379 4.81334 21.2408C4.81334 18.4439 5.89339 15.811 7.85482 13.8205Z" fill="currentColor"/>
<path d="M15.3077 12.0974C14.9215 12.0974 14.6081 11.7822 14.6081 11.394C14.6081 11.0058 14.9215 10.6907 15.3077 10.6907C15.6939 10.6907 16.0073 11.0058 16.0073 11.394C16.0073 11.7822 15.6939 12.0974 15.3077 12.0974Z" fill="currentColor"/>
</symbol><symbol id="logo-desktop" viewBox="0 0 202 52">
<path d="M76.9355 24.3369C76.9355 23.6126 76.7484 23.0674 76.374 22.7012C76.0078 22.3268 75.3364 21.9403 74.3599 21.5415C72.5776 20.866 71.2959 20.0767 70.5146 19.1733C69.7334 18.2619 69.3428 17.1877 69.3428 15.9507C69.3428 14.4533 69.8717 13.2529 70.9297 12.3496C71.9958 11.4382 73.3467 10.9824 74.9824 10.9824C76.0729 10.9824 77.0454 11.2144 77.8999 11.6782C78.7544 12.134 79.4095 12.7809 79.8652 13.6191C80.3291 14.4574 80.561 15.4095 80.561 16.4756H76.9844C76.9844 15.6455 76.8053 15.0148 76.4473 14.5835C76.0973 14.144 75.5887 13.9243 74.9214 13.9243C74.2948 13.9243 73.8065 14.1115 73.4565 14.4858C73.1066 14.8521 72.9316 15.3485 72.9316 15.9751C72.9316 16.4634 73.127 16.9069 73.5176 17.3057C73.9082 17.6963 74.5999 18.1032 75.5928 18.5264C77.3262 19.153 78.5835 19.922 79.3647 20.8335C80.1541 21.745 80.5488 22.9046 80.5488 24.3125C80.5488 25.8587 80.0565 27.0672 79.0718 27.938C78.0871 28.8088 76.7484 29.2441 75.0557 29.2441C73.9082 29.2441 72.8625 29.0081 71.9185 28.5361C70.9744 28.0641 70.2339 27.3887 69.6968 26.5098C69.1678 25.6309 68.9033 24.5933 68.9033 23.397H72.5044C72.5044 24.4224 72.7038 25.167 73.1025 25.6309C73.5013 26.0947 74.1523 26.3267 75.0557 26.3267C76.3089 26.3267 76.9355 25.6634 76.9355 24.3369ZM86.0054 15.792L86.103 17.0127C86.8761 16.0361 87.8975 15.5479 89.167 15.5479C90.4854 15.5479 91.4172 16.1419 91.9624 17.3301C92.7192 16.1419 93.7975 15.5479 95.1973 15.5479C97.5085 15.5479 98.6925 17.147 98.7495 20.3452V29H95.2949V20.5649C95.2949 19.8 95.1891 19.2547 94.9775 18.9292C94.766 18.6037 94.4079 18.4409 93.9033 18.4409C93.2604 18.4409 92.7803 18.8356 92.4629 19.625L92.4873 20.04V29H89.0327V20.5894C89.0327 19.8325 88.931 19.2873 88.7275 18.9536C88.5241 18.6118 88.1619 18.4409 87.6411 18.4409C87.047 18.4409 86.575 18.7624 86.2251 19.4053V29H82.7705V15.792H86.0054ZM107.587 29C107.49 28.7965 107.392 28.4548 107.294 27.9746C106.676 28.821 105.838 29.2441 104.78 29.2441C103.673 29.2441 102.753 28.8779 102.021 28.1455C101.297 27.4131 100.935 26.465 100.935 25.3013C100.935 23.9178 101.374 22.8477 102.253 22.0908C103.14 21.334 104.414 20.9474 106.074 20.9312H107.124V19.8691C107.124 19.2751 107.022 18.856 106.818 18.6118C106.615 18.3677 106.318 18.2456 105.927 18.2456C105.065 18.2456 104.633 18.7502 104.633 19.7593H101.179C101.179 18.5386 101.634 17.5335 102.546 16.7441C103.465 15.9466 104.625 15.5479 106.025 15.5479C107.473 15.5479 108.592 15.9263 109.382 16.6831C110.179 17.4318 110.578 18.506 110.578 19.9058V26.1191C110.594 27.2585 110.757 28.1496 111.066 28.7925V29H107.587ZM105.549 26.5342C105.931 26.5342 106.257 26.4569 106.525 26.3022C106.794 26.1476 106.993 25.9645 107.124 25.7529V23.0063H106.293C105.708 23.0063 105.244 23.1935 104.902 23.5679C104.568 23.9422 104.401 24.4427 104.401 25.0693C104.401 26.0459 104.784 26.5342 105.549 26.5342ZM119.599 19.1245L118.452 19.0269C117.508 19.0269 116.869 19.4419 116.535 20.272V29H113.068V15.792H116.328L116.425 17.2202C116.971 16.1053 117.723 15.5479 118.684 15.5479C119.074 15.5479 119.392 15.6007 119.636 15.7065L119.599 19.1245ZM126.008 12.5449V15.792H127.778V18.3921H126.008V24.9473C126.008 25.4681 126.077 25.8262 126.215 26.0215C126.362 26.2168 126.639 26.3145 127.045 26.3145C127.379 26.3145 127.652 26.286 127.863 26.229L127.839 28.9146C127.253 29.1343 126.618 29.2441 125.935 29.2441C123.705 29.2441 122.578 27.9665 122.553 25.4111V18.3921H121.027V15.792H122.553V12.5449H126.008ZM135.615 29V11.2266H140.314C142.39 11.2266 144.042 11.8857 145.271 13.2041C146.507 14.5225 147.138 16.3291 147.163 18.624V21.5049C147.163 23.8405 146.544 25.6756 145.307 27.0103C144.078 28.3368 142.382 29 140.217 29H135.615ZM139.204 14.2173V26.0215H140.278C141.474 26.0215 142.316 25.7082 142.805 25.0815C143.293 24.4468 143.549 23.3563 143.574 21.8101V18.7217C143.574 17.0615 143.342 15.9059 142.878 15.2549C142.414 14.5957 141.625 14.2498 140.51 14.2173H139.204ZM154.914 29.2441C153.14 29.2441 151.757 28.7152 150.764 27.6572C149.771 26.5993 149.274 25.0856 149.274 23.1162V22.0664C149.274 19.9831 149.73 18.3758 150.642 17.2446C151.553 16.1134 152.859 15.5479 154.56 15.5479C156.22 15.5479 157.469 16.0809 158.308 17.147C159.146 18.2049 159.573 19.7756 159.589 21.8589V23.5557H152.717C152.766 24.5322 152.981 25.2484 153.364 25.7041C153.746 26.1517 154.336 26.3755 155.134 26.3755C156.289 26.3755 157.254 25.9808 158.027 25.1914L159.382 27.2788C158.959 27.8647 158.344 28.3408 157.539 28.707C156.733 29.0651 155.858 29.2441 154.914 29.2441ZM152.741 21.1387H156.196V20.8213C156.18 20.0319 156.049 19.4338 155.805 19.0269C155.561 18.62 155.138 18.4165 154.536 18.4165C153.933 18.4165 153.494 18.6322 153.217 19.0635C152.949 19.4948 152.79 20.1865 152.741 21.1387ZM165.705 24.1172L167.377 15.792H170.979L167.353 29H164.057L160.419 15.792H164.033L165.705 24.1172ZM176.228 29H172.761V15.792H176.228V29ZM172.602 12.374C172.602 11.8369 172.773 11.3975 173.115 11.0557C173.457 10.7139 173.912 10.543 174.482 10.543C175.052 10.543 175.507 10.7139 175.849 11.0557C176.191 11.3975 176.362 11.8369 176.362 12.374C176.362 12.903 176.191 13.3424 175.849 13.6924C175.515 14.0423 175.06 14.2173 174.482 14.2173C173.904 14.2173 173.444 14.0423 173.103 13.6924C172.769 13.3424 172.602 12.903 172.602 12.374ZM183.674 26.3755C184.675 26.3755 185.183 25.7244 185.2 24.4224H188.447C188.431 25.8628 187.987 27.0265 187.116 27.9136C186.245 28.8006 185.122 29.2441 183.747 29.2441C182.046 29.2441 180.748 28.7152 179.853 27.6572C178.958 26.5993 178.502 25.0409 178.486 22.9819V21.9321C178.486 19.8569 178.925 18.2741 179.804 17.1836C180.691 16.0931 181.997 15.5479 183.723 15.5479C185.179 15.5479 186.327 15.9995 187.165 16.9028C188.003 17.798 188.431 19.0716 188.447 20.7236H185.2C185.192 19.9831 185.069 19.4134 184.833 19.0146C184.597 18.6159 184.207 18.4165 183.662 18.4165C183.059 18.4165 182.628 18.6322 182.368 19.0635C182.107 19.4867 181.969 20.3127 181.953 21.5415V22.8843C181.953 23.9585 182.006 24.7113 182.111 25.1426C182.217 25.5658 182.392 25.8791 182.636 26.0825C182.88 26.2778 183.226 26.3755 183.674 26.3755ZM195.734 29.2441C193.96 29.2441 192.577 28.7152 191.584 27.6572C190.591 26.5993 190.095 25.0856 190.095 23.1162V22.0664C190.095 19.9831 190.55 18.3758 191.462 17.2446C192.373 16.1134 193.68 15.5479 195.38 15.5479C197.041 15.5479 198.29 16.0809 199.128 17.147C199.966 18.2049 200.393 19.7756 200.41 21.8589V23.5557H193.537C193.586 24.5322 193.802 25.2484 194.184 25.7041C194.567 26.1517 195.157 26.3755 195.954 26.3755C197.11 26.3755 198.074 25.9808 198.847 25.1914L200.202 27.2788C199.779 27.8647 199.165 28.3408 198.359 28.707C197.553 29.0651 196.678 29.2441 195.734 29.2441ZM193.562 21.1387H197.016V20.8213C197 20.0319 196.87 19.4338 196.625 19.0269C196.381 18.62 195.958 18.4165 195.356 18.4165C194.754 18.4165 194.314 18.6322 194.038 19.0635C193.769 19.4948 193.61 20.1865 193.562 21.1387Z" fill="white"/>
<path d="M70.9473 44.9609L72.2363 40.6602H73.7539L71.2344 47.9609C70.8477 49.0273 70.1914 49.5605 69.2656 49.5605C69.0586 49.5605 68.8301 49.5254 68.5801 49.4551V48.3535L68.8496 48.3711C69.209 48.3711 69.4785 48.3047 69.6582 48.1719C69.8418 48.043 69.9863 47.8242 70.0918 47.5156L70.2969 46.9707L68.0703 40.6602H69.6055L70.9473 44.9609ZM78.3418 45.248L80.2168 40.6602H81.998V47H80.5742V42.8047L78.8281 47H77.8613L76.1094 42.7812V47H74.6855V40.6602H76.4785L78.3418 45.248ZM88.9707 47H87.5469V44.4395H85.0801V47H83.6562V40.6602H85.0801V43.3027H87.5469V40.6602H88.9707V47ZM92.0234 42.6758H93.418C93.9375 42.6758 94.3906 42.7656 94.7773 42.9453C95.1641 43.125 95.457 43.377 95.6562 43.7012C95.8594 44.0254 95.9609 44.4023 95.9609 44.832C95.9609 45.4844 95.7305 46.0078 95.2695 46.4023C94.8086 46.7969 94.1953 46.9961 93.4297 47H90.5996V40.6602H92.0234V42.6758ZM98.4395 47H97.0156V40.6602H98.4395V47ZM92.0234 43.8184V45.8633H93.4121C93.7598 45.8633 94.0332 45.7773 94.2324 45.6055C94.4355 45.4297 94.5371 45.1816 94.5371 44.8613C94.5371 44.541 94.4375 44.2891 94.2383 44.1055C94.043 43.918 93.7773 43.8223 93.4414 43.8184H92.0234ZM102.939 47.1172C102.037 47.1172 101.305 46.834 100.742 46.2676C100.184 45.6973 99.9043 44.9395 99.9043 43.9941V43.8184C99.9043 43.1855 100.025 42.6211 100.268 42.125C100.514 41.625 100.857 41.2363 101.299 40.959C101.74 40.6816 102.232 40.543 102.775 40.543C103.639 40.543 104.305 40.8184 104.773 41.3691C105.246 41.9199 105.482 42.6992 105.482 43.707V44.2812H101.34C101.383 44.8047 101.557 45.2188 101.861 45.5234C102.17 45.8281 102.557 45.9805 103.021 45.9805C103.674 45.9805 104.205 45.7168 104.615 45.1895L105.383 45.9219C105.129 46.3008 104.789 46.5957 104.363 46.8066C103.941 47.0137 103.467 47.1172 102.939 47.1172ZM102.77 41.6855C102.379 41.6855 102.062 41.8223 101.82 42.0957C101.582 42.3691 101.43 42.75 101.363 43.2383H104.076V43.1328C104.045 42.6562 103.918 42.2969 103.695 42.0547C103.473 41.8086 103.164 41.6855 102.77 41.6855ZM114.57 41.791H112.514V47H111.09V41.791H109.057V40.6602H114.57V41.791ZM117.939 47.1172C117.037 47.1172 116.305 46.834 115.742 46.2676C115.184 45.6973 114.904 44.9395 114.904 43.9941V43.8184C114.904 43.1855 115.025 42.6211 115.268 42.125C115.514 41.625 115.857 41.2363 116.299 40.959C116.74 40.6816 117.232 40.543 117.775 40.543C118.639 40.543 119.305 40.8184 119.773 41.3691C120.246 41.9199 120.482 42.6992 120.482 43.707V44.2812H116.34C116.383 44.8047 116.557 45.2188 116.861 45.5234C117.17 45.8281 117.557 45.9805 118.021 45.9805C118.674 45.9805 119.205 45.7168 119.615 45.1895L120.383 45.9219C120.129 46.3008 119.789 46.5957 119.363 46.8066C118.941 47.0137 118.467 47.1172 117.939 47.1172ZM117.77 41.6855C117.379 41.6855 117.062 41.8223 116.82 42.0957C116.582 42.3691 116.43 42.75 116.363 43.2383H119.076V43.1328C119.045 42.6562 118.918 42.2969 118.695 42.0547C118.473 41.8086 118.164 41.6855 117.77 41.6855ZM123.869 42.7461L125.076 40.6602H126.658L124.719 43.7832L126.723 47H125.152L123.887 44.832L122.627 47H121.045L123.049 43.7832L121.115 40.6602H122.686L123.869 42.7461ZM132.998 47H131.574V44.4395H129.107V47H127.684V40.6602H129.107V43.3027H131.574V40.6602H132.998V47ZM134.252 43.7715C134.252 43.1504 134.375 42.5918 134.621 42.0957C134.867 41.5957 135.213 41.2129 135.658 40.9473C136.104 40.6777 136.615 40.543 137.193 40.543C138.049 40.543 138.742 40.8184 139.273 41.3691C139.809 41.9199 140.098 42.6504 140.141 43.5605L140.146 43.8945C140.146 44.5195 140.025 45.0781 139.783 45.5703C139.545 46.0625 139.201 46.4434 138.752 46.7129C138.307 46.9824 137.791 47.1172 137.205 47.1172C136.311 47.1172 135.594 46.8203 135.055 46.2266C134.52 45.6289 134.252 44.834 134.252 43.8418V43.7715ZM135.676 43.8945C135.676 44.5469 135.811 45.0586 136.08 45.4297C136.35 45.7969 136.725 45.9805 137.205 45.9805C137.686 45.9805 138.059 45.793 138.324 45.418C138.594 45.043 138.729 44.4941 138.729 43.7715C138.729 43.1309 138.59 42.623 138.312 42.248C138.039 41.873 137.666 41.6855 137.193 41.6855C136.729 41.6855 136.359 41.8711 136.086 42.2422C135.812 42.6094 135.676 43.1602 135.676 43.8945ZM146.645 40.6602V47H145.221V41.8086H143.428L143.311 44.0176C143.236 45.0801 143.031 45.8438 142.695 46.3086C142.363 46.7695 141.854 47 141.166 47H140.727L140.721 45.8164L141.014 45.7871C141.326 45.7441 141.553 45.5547 141.693 45.2188C141.838 44.8789 141.93 44.2617 141.969 43.3672L142.086 40.6602H146.645ZM147.893 43.7715C147.893 43.1504 148.016 42.5918 148.262 42.0957C148.508 41.5957 148.854 41.2129 149.299 40.9473C149.744 40.6777 150.256 40.543 150.834 40.543C151.689 40.543 152.383 40.8184 152.914 41.3691C153.449 41.9199 153.738 42.6504 153.781 43.5605L153.787 43.8945C153.787 44.5195 153.666 45.0781 153.424 45.5703C153.186 46.0625 152.842 46.4434 152.393 46.7129C151.947 46.9824 151.432 47.1172 150.846 47.1172C149.951 47.1172 149.234 46.8203 148.695 46.2266C148.16 45.6289 147.893 44.834 147.893 43.8418V43.7715ZM149.316 43.8945C149.316 44.5469 149.451 45.0586 149.721 45.4297C149.99 45.7969 150.365 45.9805 150.846 45.9805C151.326 45.9805 151.699 45.793 151.965 45.418C152.234 45.043 152.369 44.4941 152.369 43.7715C152.369 43.1309 152.23 42.623 151.953 42.248C151.68 41.873 151.307 41.6855 150.834 41.6855C150.369 41.6855 150 41.8711 149.727 42.2422C149.453 42.6094 149.316 43.1602 149.316 43.8945ZM159.213 41.8086H156.459V47H155.041V40.6602H159.213V41.8086ZM163.977 40.6602H165.395V47H163.977V42.7695L161.492 47H160.074V40.6602H161.492V44.8906L163.977 40.6602ZM170.867 40.6602H172.285V47H170.867V42.7695L168.383 47H166.965V40.6602H168.383V44.8906L170.867 40.6602Z" fill="#788891"/>
<path d="M32.0668 13.8665C33.1952 13.8665 34.1485 14.5936 34.5073 15.5998H43.4929C43.8517 14.5936 44.805 13.8665 45.9334 13.8665C47.3669 13.8665 48.5334 15.033 48.5334 16.4664C48.5334 17.8999 47.3669 19.0664 45.9334 19.0664C44.805 19.0664 43.8517 18.3392 43.4929 17.3331H34.5064C34.1476 18.3392 33.1943 19.0664 32.0659 19.0664C30.6324 19.0664 29.4659 17.8999 29.4659 16.4664C29.4659 15.033 30.6333 13.8665 32.0668 13.8665ZM45.9334 17.3331C46.411 17.3331 46.8001 16.9448 46.8001 16.4664C46.8001 15.988 46.411 15.5998 45.9334 15.5998C45.4559 15.5998 45.0668 15.988 45.0668 16.4664C45.0668 16.9448 45.4559 17.3331 45.9334 17.3331ZM32.0668 17.3331C32.5443 17.3331 32.9334 16.9448 32.9334 16.4664C32.9334 15.988 32.5443 15.5998 32.0668 15.5998C31.5892 15.5998 31.2001 15.988 31.2001 16.4664C31.2001 16.9448 31.5892 17.3331 32.0668 17.3331Z" fill="#00B2FF"/>
<path d="M25.1333 19.2259V13.8665C25.1333 13.636 25.2243 13.4158 25.3872 13.2538L28.8539 9.78716C29.0159 9.62423 29.2369 9.53323 29.4666 9.53323H32.2261C32.5849 8.52705 33.5382 7.79993 34.6666 7.79993C36.1001 7.79993 37.2666 8.96644 37.2666 10.3999C37.2666 11.8333 36.1001 12.9998 34.6666 12.9998C33.5382 12.9998 32.5849 12.2727 32.2261 11.2665H29.8254L26.8666 14.2253V19.2259C27.8728 19.5847 28.5999 20.538 28.5999 21.6664C28.5999 23.0998 27.4334 24.2663 25.9999 24.2663C24.5665 24.2663 23.3999 23.0998 23.3999 21.6664C23.3999 20.538 24.1271 19.5847 25.1333 19.2259ZM34.6666 11.2665C35.1441 11.2665 35.5333 10.8783 35.5333 10.3999C35.5333 9.92149 35.1441 9.53323 34.6666 9.53323C34.1891 9.53323 33.7999 9.92149 33.7999 10.3999C33.7999 10.8783 34.1891 11.2665 34.6666 11.2665ZM25.9999 22.533C26.4775 22.533 26.8666 22.1448 26.8666 21.6664C26.8666 21.188 26.4775 20.7997 25.9999 20.7997C25.5224 20.7997 25.1333 21.188 25.1333 21.6664C25.1333 22.1448 25.5224 22.533 25.9999 22.533Z" fill="#00B2FF"/>
<path d="M9.53333 22.533C9.93373 22.533 10.3081 22.6309 10.647 22.7938L12.1333 21.3075V12.9998C12.1333 12.7693 12.2243 12.5491 12.3873 12.3871L21.0609 3.7136C20.8979 3.37474 20.8 3.00035 20.8 2.59996C20.8 1.16651 21.9665 0 23.4 0C24.8335 0 26 1.16651 26 2.59996C26 4.0334 24.8335 5.19991 23.4 5.19991C22.9996 5.19991 22.6252 5.10198 22.2863 4.93905L13.8667 13.3586V21.6663C13.8667 21.8968 13.7757 22.117 13.6127 22.279L11.8725 24.0193C12.0354 24.3581 12.1333 24.7325 12.1333 25.1329C12.1333 26.5664 10.9668 27.7329 9.53333 27.7329C8.09986 27.7329 6.93333 26.5664 6.93333 25.1329C6.93333 23.6995 8.09986 22.533 9.53333 22.533ZM23.4 3.46661C23.8775 3.46661 24.2667 3.07835 24.2667 2.59996C24.2667 2.12156 23.8775 1.7333 23.4 1.7333C22.9225 1.7333 22.5333 2.12156 22.5333 2.59996C22.5333 3.07835 22.9225 3.46661 23.4 3.46661ZM9.53333 25.9996C10.0109 25.9996 10.4 25.6113 10.4 25.1329C10.4 24.6545 10.0109 24.2663 9.53333 24.2663C9.0558 24.2663 8.66667 24.6545 8.66667 25.1329C8.66667 25.6113 9.0558 25.9996 9.53333 25.9996Z" fill="#00B2FF"/>
<path d="M1.73328 12.2926V8.66652C1.73328 8.43599 1.82428 8.21586 1.98722 8.0538L8.05388 1.98723C8.21595 1.8243 8.43695 1.7333 8.66662 1.7333H13.1594C13.5182 0.727121 14.4716 0 15.6 0C17.0334 0 18.2 1.16651 18.2 2.59996C18.2 4.0334 17.0334 5.19991 15.6 5.19991C14.4716 5.19991 13.5182 4.47279 13.1594 3.46661H9.02542L3.46662 9.02532V12.2926C4.47282 12.6514 5.19995 13.6047 5.19995 14.7331C5.19995 16.1665 4.03342 17.333 2.59995 17.333C1.16648 17.333 -4.95911e-05 16.1665 -4.95911e-05 14.7331C-4.95911e-05 13.6047 0.727085 12.6514 1.73328 12.2926ZM15.6 3.46661C16.0775 3.46661 16.4666 3.07835 16.4666 2.59996C16.4666 2.12156 16.0775 1.7333 15.6 1.7333C15.1224 1.7333 14.7333 2.12156 14.7333 2.59996C14.7333 3.07835 15.1224 3.46661 15.6 3.46661ZM2.59995 15.5997C3.07748 15.5997 3.46662 15.2115 3.46662 14.7331C3.46662 14.2547 3.07748 13.8664 2.59995 13.8664C2.12242 13.8664 1.73328 14.2547 1.73328 14.7331C1.73328 15.2115 2.12242 15.5997 2.59995 15.5997Z" fill="#00B2FF"/>
<path d="M13.8658 46.9595V34.5066C12.8604 34.1478 12.1333 33.1945 12.1333 32.0661C12.1333 30.6327 13.2998 29.4661 14.7333 29.4661C15.8617 29.4661 16.815 30.1933 17.1738 31.1995H26.1594C26.5182 30.1933 27.4716 29.4661 28.6 29.4661C29.7284 29.4661 30.6817 30.1933 31.0405 31.1995H36.0412L39.2608 27.9798C39.0979 27.641 39 27.2666 39 26.8662C39 25.4327 40.1665 24.2662 41.6 24.2662C43.0334 24.2662 44.2 25.4327 44.2 26.8662C44.2 28.2996 43.0334 29.4661 41.6 29.4661C41.1996 29.4661 40.8252 29.3682 40.4863 29.2053L37.0127 32.6788C36.8506 32.8418 36.6296 32.9328 36.4 32.9328H31.0405C30.6817 33.9389 29.7284 34.6661 28.6 34.6661C27.4716 34.6661 26.5182 33.9389 26.1594 32.9328H17.173C16.9112 33.6668 16.3332 34.2449 15.5991 34.5066V46.9595C16.6053 47.3183 17.3324 48.2716 17.3324 49.4C17.3324 50.8335 16.1659 52 14.7324 52C13.299 52 12.1324 50.8335 12.1324 49.4C12.1324 48.2716 12.8596 47.3183 13.8658 46.9595ZM41.6 27.7328C42.0775 27.7328 42.4666 27.3446 42.4666 26.8662C42.4666 26.3878 42.0775 25.9995 41.6 25.9995C41.1224 25.9995 40.7333 26.3878 40.7333 26.8662C40.7333 27.3446 41.1224 27.7328 41.6 27.7328ZM28.6 32.9328C29.0775 32.9328 29.4666 32.5445 29.4666 32.0661C29.4666 31.5877 29.0775 31.1995 28.6 31.1995C28.1224 31.1995 27.7333 31.5877 27.7333 32.0661C27.7333 32.5445 28.1224 32.9328 28.6 32.9328ZM14.7333 50.2658C15.2108 50.2658 15.6 49.8775 15.6 49.3991C15.6 48.9208 15.2108 48.5325 14.7333 48.5325C14.2558 48.5325 13.8666 48.9208 13.8666 49.3991C13.8666 49.8775 14.2558 50.2658 14.7333 50.2658ZM14.7333 32.9328C15.2108 32.9328 15.6 32.5445 15.6 32.0661C15.6 31.5877 15.2108 31.1995 14.7333 31.1995C14.2558 31.1995 13.8666 31.5877 13.8666 32.0661C13.8666 32.5445 14.2558 32.9328 14.7333 32.9328Z" fill="#00B2FF"/>
<path d="M18.2 17.4925V14.7331C18.2 14.5026 18.291 14.2824 18.4539 14.1204L28.8609 3.7136C28.6979 3.37474 28.6 3.00035 28.6 2.59996C28.6 1.16651 29.7665 0 31.2 0C32.3284 0 33.2817 0.727121 33.6405 1.7333H37.2667C37.7451 1.7333 38.1333 2.1207 38.1333 2.59996V4.84112L41.353 8.06073C41.6919 7.8978 42.0663 7.79987 42.4667 7.79987C43.9001 7.79987 45.0667 8.96638 45.0667 10.3998C45.0667 11.8333 43.9001 12.9998 42.4667 12.9998C41.0332 12.9998 39.8667 11.8333 39.8667 10.3998C39.8667 9.99943 39.9646 9.62504 40.1275 9.28618L36.6539 5.81264C36.491 5.65057 36.4 5.43044 36.4 5.19991V3.46661H33.6405C33.2817 4.47279 32.3284 5.19991 31.2 5.19991C30.7996 5.19991 30.4252 5.10198 30.0863 4.93905L19.9333 15.0919V17.4925C20.9395 17.8513 21.6667 18.8046 21.6667 19.933C21.6667 21.3664 20.5001 22.533 19.0667 22.533C17.6332 22.533 16.4667 21.3664 16.4667 19.933C16.4667 18.8046 17.1938 17.8513 18.2 17.4925ZM42.4667 11.2665C42.9442 11.2665 43.3333 10.8782 43.3333 10.3998C43.3333 9.92143 42.9442 9.53317 42.4667 9.53317C41.9891 9.53317 41.6 9.92143 41.6 10.3998C41.6 10.8782 41.9891 11.2665 42.4667 11.2665ZM31.2 3.46661C31.6775 3.46661 32.0667 3.07835 32.0667 2.59996C32.0667 2.12156 31.6775 1.7333 31.2 1.7333C30.7225 1.7333 30.3333 2.12156 30.3333 2.59996C30.3333 3.07835 30.7225 3.46661 31.2 3.46661ZM19.0667 20.7997C19.5442 20.7997 19.9333 20.4114 19.9333 19.933C19.9333 19.4546 19.5442 19.0663 19.0667 19.0663C18.5891 19.0663 18.2 19.4546 18.2 19.933C18.2 20.4114 18.5891 20.7997 19.0667 20.7997Z" fill="#00B2FF"/>
<path d="M20.8 24.2663C21.9284 24.2663 22.8817 24.9934 23.2405 25.9996H33.4412L38.3873 21.0536C38.5493 20.8906 38.7703 20.7997 39 20.7997H48.1745L50.2667 18.7076V11.6253L43.5803 4.93905C43.2415 5.10198 42.8671 5.19991 42.4667 5.19991C41.0332 5.19991 39.8667 4.0334 39.8667 2.59996C39.8667 1.16651 41.0332 0 42.4667 0C43.9001 0 45.0667 1.16651 45.0667 2.59996C45.0667 3.00035 44.9687 3.37474 44.8058 3.7136L51.7461 10.6538C51.909 10.8158 52 11.0359 52 11.2665V19.0663C52 19.2969 51.909 19.517 51.7461 19.6791L49.1461 22.279C48.984 22.442 48.763 22.533 48.5333 22.533H39.3588L34.4127 27.4789C34.2507 27.6419 34.0297 27.7329 33.8 27.7329H23.2405C22.8817 28.7391 21.9284 29.4662 20.8 29.4662C19.3665 29.4662 18.2 28.2997 18.2 26.8662C18.2 25.4328 19.3665 24.2663 20.8 24.2663ZM42.4667 1.7333C41.9891 1.7333 41.6 2.12156 41.6 2.59996C41.6 3.07835 41.9891 3.46661 42.4667 3.46661C42.9442 3.46661 43.3333 3.07835 43.3333 2.59996C43.3333 2.12156 42.9442 1.7333 42.4667 1.7333ZM20.8 27.7329C21.2775 27.7329 21.6667 27.3446 21.6667 26.8662C21.6667 26.3878 21.2775 25.9996 20.8 25.9996C20.3225 25.9996 19.9333 26.3878 19.9333 26.8662C19.9333 27.3446 20.3225 27.7329 20.8 27.7329Z" fill="#00B2FF"/>
<path d="M2.59997 20.7997C3.00037 20.7997 3.37477 20.8976 3.71363 21.0606L6.9333 17.841V12.8404C5.9271 12.4816 5.19997 11.5283 5.19997 10.3999C5.19997 8.96644 6.3665 7.79993 7.79997 7.79993C9.23343 7.79993 10.4 8.96644 10.4 10.3999C10.4 11.5283 9.67283 12.4816 8.66663 12.8404V18.1998C8.66663 18.4303 8.57563 18.6504 8.4127 18.8125L4.9391 22.286C5.10204 22.6249 5.19997 22.9993 5.19997 23.3997C5.19997 24.528 4.47283 25.4814 3.46663 25.8402V26.5075L10.146 33.1868C10.309 33.3488 10.4 33.569 10.4 33.7995V34.8256C11.4062 35.1844 12.1333 36.1377 12.1333 37.2661C12.1333 38.3945 11.4062 39.3478 10.4 39.7066V41.7597C11.4062 42.1185 12.1333 43.0718 12.1333 44.2002C12.1333 45.6336 10.9668 46.8001 9.5333 46.8001C8.09983 46.8001 6.9333 45.6336 6.9333 44.2002C6.9333 43.0718 7.66043 42.1185 8.66663 41.7597V39.7066C7.66043 39.3478 6.9333 38.3945 6.9333 37.2661C6.9333 36.1377 7.66043 35.1844 8.66663 34.8256V34.1583L1.98723 27.479C1.8243 27.3169 1.7333 27.0968 1.7333 26.8663V25.8402C0.7271 25.4814 -3.24249e-05 24.528 -3.24249e-05 23.3997C-3.24249e-05 21.9662 1.1665 20.7997 2.59997 20.7997ZM7.79997 11.2665C8.2775 11.2665 8.66663 10.8783 8.66663 10.3999C8.66663 9.92149 8.2775 9.53323 7.79997 9.53323C7.32243 9.53323 6.9333 9.92149 6.9333 10.3999C6.9333 10.8783 7.32243 11.2665 7.79997 11.2665ZM9.5333 45.066C10.0108 45.066 10.4 44.6777 10.4 44.1993C10.4 43.7209 10.0108 43.3327 9.5333 43.3327C9.05577 43.3327 8.66663 43.7209 8.66663 44.1993C8.66663 44.6777 9.05577 45.066 9.5333 45.066ZM9.5333 38.1328C10.0108 38.1328 10.4 37.7445 10.4 37.2661C10.4 36.7877 10.0108 36.3995 9.5333 36.3995C9.05577 36.3995 8.66663 36.7877 8.66663 37.2661C8.66663 37.7445 9.05577 38.1328 9.5333 38.1328ZM2.59997 24.2663C3.0775 24.2663 3.46663 23.8781 3.46663 23.3997C3.46663 22.9213 3.0775 22.533 2.59997 22.533C2.12243 22.533 1.7333 22.9213 1.7333 23.3997C1.7333 23.8781 2.12243 24.2663 2.59997 24.2663Z" fill="#00B2FF"/>
</symbol><symbol id="logo-mobile" viewBox="0 0 38 38">
<path d="M23.4335 10.1332C24.2581 10.1332 24.9547 10.6645 25.2169 11.3998H31.7833C32.0455 10.6645 32.7422 10.1332 33.5668 10.1332C34.6143 10.1332 35.4668 10.9856 35.4668 12.0331C35.4668 13.0807 34.6143 13.9331 33.5668 13.9331C32.7422 13.9331 32.0455 13.4018 31.7833 12.6665H25.2163C24.9541 13.4018 24.2574 13.9331 23.4328 13.9331C22.3853 13.9331 21.5328 13.0807 21.5328 12.0331C21.5328 10.9856 22.3859 10.1332 23.4335 10.1332ZM33.5668 12.6665C33.9158 12.6665 34.2001 12.3827 34.2001 12.0331C34.2001 11.6836 33.9158 11.3998 33.5668 11.3998C33.2178 11.3998 32.9335 11.6836 32.9335 12.0331C32.9335 12.3827 33.2178 12.6665 33.5668 12.6665ZM23.4335 12.6665C23.7824 12.6665 24.0668 12.3827 24.0668 12.0331C24.0668 11.6836 23.7824 11.3998 23.4335 11.3998C23.0845 11.3998 22.8001 11.6836 22.8001 12.0331C22.8001 12.3827 23.0845 12.6665 23.4335 12.6665Z" fill="#00B2FF"/>
<path d="M18.3667 14.0497V10.1332C18.3667 9.96475 18.4332 9.80388 18.5523 9.68545L21.0856 7.15216C21.2041 7.0331 21.3656 6.9666 21.5334 6.9666H23.5499C23.8121 6.23131 24.5088 5.69995 25.3334 5.69995C26.3809 5.69995 27.2334 6.5524 27.2334 7.59992C27.2334 8.64744 26.3809 9.49989 25.3334 9.49989C24.5088 9.49989 23.8121 8.96853 23.5499 8.23324H21.7956L19.6334 10.3954V14.0497C20.3687 14.3119 20.9001 15.0085 20.9001 15.8331C20.9001 16.8806 20.0476 17.7331 19.0001 17.7331C17.9525 17.7331 17.1001 16.8806 17.1001 15.8331C17.1001 15.0085 17.6314 14.3119 18.3667 14.0497ZM25.3334 8.23324C25.6824 8.23324 25.9667 7.94951 25.9667 7.59992C25.9667 7.25033 25.6824 6.9666 25.3334 6.9666C24.9844 6.9666 24.7001 7.25033 24.7001 7.59992C24.7001 7.94951 24.9844 8.23324 25.3334 8.23324ZM19.0001 16.4664C19.349 16.4664 19.6334 16.1827 19.6334 15.8331C19.6334 15.4835 19.349 15.1998 19.0001 15.1998C18.6511 15.1998 18.3667 15.4835 18.3667 15.8331C18.3667 16.1827 18.6511 16.4664 19.0001 16.4664Z" fill="#00B2FF"/>
<path d="M6.96667 16.4664C7.25927 16.4664 7.53287 16.538 7.7805 16.657L8.86667 15.5709V9.49984C8.86667 9.33138 8.93317 9.17051 9.05223 9.05208L15.3906 2.71379C15.2716 2.46616 15.2 2.19256 15.2 1.89997C15.2 0.852452 16.0525 0 17.1 0C18.1475 0 19 0.852452 19 1.89997C19 2.94748 18.1475 3.79994 17.1 3.79994C16.8074 3.79994 16.5338 3.72837 16.2862 3.60931L10.1333 9.76204V15.8331C10.1333 16.0015 10.0668 16.1624 9.94777 16.2808L8.67603 17.5525C8.7951 17.8002 8.86667 18.0738 8.86667 18.3664C8.86667 19.4139 8.0142 20.2663 6.96667 20.2663C5.91913 20.2663 5.06667 19.4139 5.06667 18.3664C5.06667 17.3188 5.91913 16.4664 6.96667 16.4664ZM17.1 2.53329C17.449 2.53329 17.7333 2.24956 17.7333 1.89997C17.7333 1.55037 17.449 1.26665 17.1 1.26665C16.751 1.26665 16.4667 1.55037 16.4667 1.89997C16.4667 2.24956 16.751 2.53329 17.1 2.53329ZM6.96667 18.9997C7.31563 18.9997 7.6 18.716 7.6 18.3664C7.6 18.0168 7.31563 17.733 6.96667 17.733C6.6177 17.733 6.33333 18.0168 6.33333 18.3664C6.33333 18.716 6.6177 18.9997 6.96667 18.9997Z" fill="#00B2FF"/>
<path d="M1.26696 8.98305V6.33323C1.26696 6.16476 1.33346 6.0039 1.45253 5.88547L5.88586 1.45221C6.00429 1.33314 6.16579 1.26665 6.33363 1.26665H9.61683C9.87903 0.531358 10.5757 0 11.4003 0C12.4478 0 13.3003 0.852452 13.3003 1.89997C13.3003 2.94748 12.4478 3.79994 11.4003 3.79994C10.5757 3.79994 9.87903 3.26858 9.61683 2.53329H6.59583L2.53363 6.59542V8.98305C3.26893 9.24525 3.80029 9.9419 3.80029 10.7665C3.80029 11.814 2.94783 12.6665 1.90029 12.6665C0.852759 12.6665 0.000292778 11.814 0.000292778 10.7665C0.000292778 9.9419 0.53166 9.24525 1.26696 8.98305ZM11.4003 2.53329C11.7493 2.53329 12.0336 2.24956 12.0336 1.89997C12.0336 1.55037 11.7493 1.26665 11.4003 1.26665C11.0513 1.26665 10.767 1.55037 10.767 1.89997C10.767 2.24956 11.0513 2.53329 11.4003 2.53329ZM1.90029 11.3998C2.24926 11.3998 2.53363 11.1161 2.53363 10.7665C2.53363 10.4169 2.24926 10.1332 1.90029 10.1332C1.55133 10.1332 1.26696 10.4169 1.26696 10.7665C1.26696 11.1161 1.55133 11.3998 1.90029 11.3998Z" fill="#00B2FF"/>
<path d="M10.133 34.3166V25.2164C9.39833 24.9542 8.86696 24.2575 8.86696 23.4329C8.86696 22.3854 9.71943 21.533 10.767 21.533C11.5916 21.533 12.2882 22.0643 12.5504 22.7996H19.1168C19.379 22.0643 20.0757 21.533 20.9003 21.533C21.7249 21.533 22.4216 22.0643 22.6838 22.7996H26.3381L28.6909 20.4468C28.5719 20.1992 28.5003 19.9256 28.5003 19.633C28.5003 18.5855 29.3528 17.733 30.4003 17.733C31.4478 17.733 32.3003 18.5855 32.3003 19.633C32.3003 20.6805 31.4478 21.533 30.4003 21.533C30.1077 21.533 29.8341 21.4614 29.5865 21.3423L27.0481 23.8807C26.9296 23.9998 26.7681 24.0663 26.6003 24.0663H22.6838C22.4216 24.8015 21.7249 25.3329 20.9003 25.3329C20.0757 25.3329 19.379 24.8015 19.1168 24.0663H12.5498C12.3585 24.6027 11.9361 25.0251 11.3997 25.2164V34.3166C12.135 34.5788 12.6663 35.2754 12.6663 36.1C12.6663 37.1475 11.8139 38 10.7663 38C9.71879 38 8.86633 37.1475 8.86633 36.1C8.86633 35.2754 9.39769 34.5788 10.133 34.3166ZM30.4003 20.2663C30.7493 20.2663 31.0336 19.9826 31.0336 19.633C31.0336 19.2834 30.7493 18.9997 30.4003 18.9997C30.0513 18.9997 29.767 19.2834 29.767 19.633C29.767 19.9826 30.0513 20.2663 30.4003 20.2663ZM20.9003 24.0663C21.2493 24.0663 21.5336 23.7825 21.5336 23.4329C21.5336 23.0833 21.2493 22.7996 20.9003 22.7996C20.5513 22.7996 20.267 23.0833 20.267 23.4329C20.267 23.7825 20.5513 24.0663 20.9003 24.0663ZM10.767 36.7327C11.1159 36.7327 11.4003 36.449 11.4003 36.0994C11.4003 35.7498 11.1159 35.4661 10.767 35.4661C10.418 35.4661 10.1336 35.7498 10.1336 36.0994C10.1336 36.449 10.418 36.7327 10.767 36.7327ZM10.767 24.0663C11.1159 24.0663 11.4003 23.7825 11.4003 23.4329C11.4003 23.0833 11.1159 22.7996 10.767 22.7996C10.418 22.7996 10.1336 23.0833 10.1336 23.4329C10.1336 23.7825 10.418 24.0663 10.767 24.0663Z" fill="#00B2FF"/>
<path d="M13.2998 12.783V10.7665C13.2998 10.598 13.3663 10.4372 13.4853 10.3187L21.0904 2.71379C20.9713 2.46616 20.8998 2.19256 20.8998 1.89997C20.8998 0.852452 21.7522 0 22.7998 0C23.6244 0 24.321 0.531358 24.5832 1.26665H27.2331C27.5827 1.26665 27.8664 1.54974 27.8664 1.89997V3.53774L30.2193 5.89053C30.4669 5.77147 30.7405 5.6999 31.0331 5.6999C32.0806 5.6999 32.9331 6.55236 32.9331 7.59987C32.9331 8.64739 32.0806 9.49984 31.0331 9.49984C29.9856 9.49984 29.1331 8.64739 29.1331 7.59987C29.1331 7.30728 29.2047 7.03368 29.3237 6.78605L26.7853 4.2477C26.6663 4.12926 26.5998 3.9684 26.5998 3.79994V2.53329H24.5832C24.321 3.26858 23.6244 3.79994 22.7998 3.79994C22.5072 3.79994 22.2336 3.72837 21.9859 3.60931L14.5664 11.0287V12.783C15.3017 13.0452 15.8331 13.7418 15.8331 14.5664C15.8331 15.6139 14.9806 16.4664 13.9331 16.4664C12.8856 16.4664 12.0331 15.6139 12.0331 14.5664C12.0331 13.7418 12.5645 13.0452 13.2998 12.783ZM31.0331 8.2332C31.3821 8.2332 31.6664 7.94947 31.6664 7.59987C31.6664 7.25028 31.3821 6.96655 31.0331 6.96655C30.6841 6.96655 30.3998 7.25028 30.3998 7.59987C30.3998 7.94947 30.6841 8.2332 31.0331 8.2332ZM22.7998 2.53329C23.1487 2.53329 23.4331 2.24956 23.4331 1.89997C23.4331 1.55037 23.1487 1.26665 22.7998 1.26665C22.4508 1.26665 22.1664 1.55037 22.1664 1.89997C22.1664 2.24956 22.4508 2.53329 22.7998 2.53329ZM13.9331 15.1997C14.2821 15.1997 14.5664 14.916 14.5664 14.5664C14.5664 14.2168 14.2821 13.9331 13.9331 13.9331C13.5841 13.9331 13.2998 14.2168 13.2998 14.5664C13.2998 14.916 13.5841 15.1997 13.9331 15.1997Z" fill="#00B2FF"/>
<path d="M15.2 17.733C16.0246 17.733 16.7213 18.2644 16.9835 18.9997H24.4378L28.0522 15.3853C28.1707 15.2662 28.3322 15.1997 28.5 15.1997H35.2045L36.7333 13.6709V8.49539L31.8472 3.60931C31.5995 3.72837 31.3259 3.79994 31.0333 3.79994C29.9858 3.79994 29.1333 2.94748 29.1333 1.89997C29.1333 0.852452 29.9858 0 31.0333 0C32.0809 0 32.9333 0.852452 32.9333 1.89997C32.9333 2.19256 32.8618 2.46616 32.7427 2.71379L37.8144 7.78544C37.9335 7.90387 38 8.06473 38 8.2332V13.9331C38 14.1016 37.9335 14.2624 37.8144 14.3809L35.9144 16.2808C35.796 16.3999 35.6345 16.4664 35.4667 16.4664H28.7622L25.1478 20.0808C25.0293 20.1998 24.8678 20.2663 24.7 20.2663H16.9835C16.7213 21.0016 16.0246 21.533 15.2 21.533C14.1525 21.533 13.3 20.6805 13.3 19.633C13.3 18.5855 14.1525 17.733 15.2 17.733ZM31.0333 1.26665C30.6844 1.26665 30.4 1.55037 30.4 1.89997C30.4 2.24956 30.6844 2.53329 31.0333 2.53329C31.3823 2.53329 31.6667 2.24956 31.6667 1.89997C31.6667 1.55037 31.3823 1.26665 31.0333 1.26665ZM15.2 20.2663C15.549 20.2663 15.8333 19.9826 15.8333 19.633C15.8333 19.2834 15.549 18.9997 15.2 18.9997C14.851 18.9997 14.5667 19.2834 14.5667 19.633C14.5667 19.9826 14.851 20.2663 15.2 20.2663Z" fill="#00B2FF"/>
<path d="M1.90052 15.1998C2.19312 15.1998 2.46672 15.2714 2.71435 15.3904L5.06719 13.0376V9.38336C4.33189 9.12116 3.80052 8.42451 3.80052 7.59992C3.80052 6.5524 4.65299 5.69995 5.70052 5.69995C6.74805 5.69995 7.60052 6.5524 7.60052 7.59992C7.60052 8.42451 7.06915 9.12116 6.33385 9.38336V13.2998C6.33385 13.4683 6.26735 13.6292 6.14829 13.7476L3.60989 16.2859C3.72896 16.5336 3.80052 16.8072 3.80052 17.0998C3.80052 17.9243 3.26915 18.621 2.53385 18.8832V19.3709L7.41495 24.2519C7.53402 24.3703 7.60052 24.5312 7.60052 24.6996V25.4495C8.33582 25.7117 8.86719 26.4083 8.86719 27.2329C8.86719 28.0575 8.33582 28.7542 7.60052 29.0164V30.5167C8.33582 30.7789 8.86719 31.4756 8.86719 32.3001C8.86719 33.3477 8.01472 34.2001 6.96719 34.2001C5.91965 34.2001 5.06719 33.3477 5.06719 32.3001C5.06719 31.4756 5.59855 30.7789 6.33385 30.5167V29.0164C5.59855 28.7542 5.06719 28.0575 5.06719 27.2329C5.06719 26.4083 5.59855 25.7117 6.33385 25.4495V24.9618L1.45275 20.0808C1.33369 19.9624 1.26719 19.8015 1.26719 19.6331V18.8832C0.531888 18.621 0.000520706 17.9243 0.000520706 17.0998C0.000520706 16.0522 0.852987 15.1998 1.90052 15.1998ZM5.70052 8.23324C6.04949 8.23324 6.33385 7.94951 6.33385 7.59992C6.33385 7.25033 6.04949 6.9666 5.70052 6.9666C5.35155 6.9666 5.06719 7.25033 5.06719 7.59992C5.06719 7.94951 5.35155 8.23324 5.70052 8.23324ZM6.96719 32.9328C7.31615 32.9328 7.60052 32.6491 7.60052 32.2995C7.60052 31.9499 7.31615 31.6662 6.96719 31.6662C6.61822 31.6662 6.33385 31.9499 6.33385 32.2995C6.33385 32.6491 6.61822 32.9328 6.96719 32.9328ZM6.96719 27.8662C7.31615 27.8662 7.60052 27.5825 7.60052 27.2329C7.60052 26.8833 7.31615 26.5996 6.96719 26.5996C6.61822 26.5996 6.33385 26.8833 6.33385 27.2329C6.33385 27.5825 6.61822 27.8662 6.96719 27.8662ZM1.90052 17.7331C2.24949 17.7331 2.53385 17.4494 2.53385 17.0998C2.53385 16.7502 2.24949 16.4664 1.90052 16.4664C1.55155 16.4664 1.26719 16.7502 1.26719 17.0998C1.26719 17.4494 1.55155 17.7331 1.90052 17.7331Z" fill="#00B2FF"/>
</symbol><symbol id="mail-tablet" viewBox="0 0 26 19">
<path d="M22.2407 0H3.09787C1.38906 0 0 1.34493 0 2.99946V15.6672C0 17.3217 1.38906 18.6667 3.09787 18.6667H22.2355C23.9443 18.6667 25.3333 17.3217 25.3333 15.6672V3.00453C25.3386 1.35001 23.9495 0 22.2407 0ZM23.9233 15.6672C23.9233 16.5655 23.1685 17.2964 22.2407 17.2964H3.09787C2.17008 17.2964 1.41527 16.5655 1.41527 15.6672V3.00453C1.41527 2.10622 2.17008 1.37539 3.09787 1.37539H22.2355C23.1632 1.37539 23.9181 2.10622 23.9181 3.00453V15.6672H23.9233Z" fill="#00B2FF"/>
<path d="M15.9768 9.17598L22.1725 3.79624C22.4608 3.54248 22.487 3.11108 22.2249 2.82687C21.9629 2.54773 21.5173 2.52236 21.2238 2.77612L12.6797 10.2012L11.0129 8.75981C11.0076 8.75473 11.0024 8.74966 11.0024 8.74458C10.9657 8.70905 10.929 8.6786 10.8871 8.64815L4.10425 2.77104C3.81071 2.51728 3.36517 2.54266 3.10308 2.82687C2.84099 3.11108 2.8672 3.54248 3.16074 3.79624L9.42986 9.22165L3.18695 14.8805C2.90389 15.1394 2.88817 15.5708 3.1555 15.8499C3.29702 15.992 3.48573 16.0681 3.67443 16.0681C3.84741 16.0681 4.02038 16.0072 4.15667 15.8854L10.4939 10.1453L12.2132 11.6324C12.3495 11.7491 12.5172 11.8049 12.685 11.8049C12.8527 11.8049 13.0257 11.744 13.1567 11.6273L14.9232 10.0946L21.2238 15.8905C21.3601 16.0174 21.5383 16.0783 21.7112 16.0783C21.9 16.0783 22.0834 16.0072 22.2249 15.8651C22.4923 15.5911 22.4818 15.1546 22.1987 14.8958L15.9768 9.17598Z" fill="#00B2FF"/>
</symbol><symbol id="mail" viewBox="0 0 19 14">
<path d="M16.6805 0H2.3234C1.0418 0 0 1.0087 0 2.24959V11.7504C0 12.9913 1.0418 14 2.3234 14H16.6766C17.9582 14 19 12.9913 19 11.7504V2.2534C19.0039 1.01251 17.9621 0 16.6805 0ZM17.9425 11.7504C17.9425 12.4241 17.3764 12.9723 16.6805 12.9723H2.3234C1.62756 12.9723 1.06145 12.4241 1.06145 11.7504V2.2534C1.06145 1.57966 1.62756 1.03154 2.3234 1.03154H16.6766C17.3724 1.03154 17.9385 1.57966 17.9385 2.2534V11.7504H17.9425Z" fill="currentColor"/>
<path d="M11.9827 6.88195L16.6295 2.84715C16.8457 2.65683 16.8654 2.33328 16.6688 2.12012C16.4723 1.91077 16.1381 1.89174 15.9179 2.08206L9.50992 7.65085L8.25977 6.56982C8.25584 6.56602 8.2519 6.56221 8.2519 6.5584C8.22439 6.53176 8.19687 6.50892 8.16542 6.48608L3.07831 2.07825C2.85816 1.88793 2.524 1.90696 2.32743 2.12012C2.13087 2.33328 2.15052 2.65683 2.37068 2.84715L7.07251 6.91621L2.39033 11.1604C2.17804 11.3545 2.16625 11.678 2.36674 11.8874C2.47289 11.994 2.61442 12.0511 2.75594 12.0511C2.88568 12.0511 3.01541 12.0054 3.11762 11.914L7.87057 7.60898L9.16004 8.72426C9.26225 8.8118 9.38805 8.85367 9.51385 8.85367C9.63965 8.85367 9.76939 8.808 9.86767 8.72045L11.1925 7.57091L15.9179 11.9178C16.0202 12.013 16.1538 12.0587 16.2836 12.0587C16.4251 12.0587 16.5627 12.0054 16.6688 11.8988C16.8693 11.6933 16.8615 11.3659 16.6492 11.1718L11.9827 6.88195Z" fill="currentColor"/>
</symbol><symbol id="ok" viewBox="0 0 27 26">
<path d="M13.8512 10.957C14.8668 10.957 15.6568 10.1213 15.638 9.2113C15.6568 8.3013 14.8857 7.44702 13.87 7.44702C12.892 7.44702 12.0833 8.22702 12.0833 9.19273C12.0833 10.1584 12.8732 10.957 13.8512 10.957Z" fill="currentColor"/>
<path d="M13.701 0C6.44113 0 0.5354 5.8314 0.5354 12.9999C0.5354 20.187 6.44113 25.9999 13.701 25.9999C20.9797 25.9999 26.8667 20.1685 26.8667 12.9999C26.8855 5.8314 20.9797 0 13.701 0ZM13.8891 4.9214C16.2589 4.9214 18.215 6.85282 18.1962 9.21138C18.1962 11.5885 16.2213 13.5014 13.8139 13.4642C11.4441 13.4271 9.54445 11.5142 9.54445 9.19281C9.54445 6.83425 11.4817 4.9214 13.8891 4.9214ZM18.7228 14.9499C18.7228 14.9871 18.704 15.0056 18.704 15.0428C18.6475 15.4142 18.4595 15.7114 18.1397 15.9156C17.9328 16.0456 17.7071 16.1756 17.4814 16.2871C16.9172 16.5656 16.3153 16.7885 15.6947 16.9371C15.6195 16.9556 15.6195 16.9556 15.6759 17.0113C16.0144 17.3456 16.3718 17.6985 16.7103 18.0328C17.1429 18.4599 17.5943 18.9056 18.0269 19.3328C18.6475 19.9456 18.4783 20.967 17.6883 21.3385C17.5567 21.4128 17.4062 21.4313 17.2558 21.4685C17.1805 21.4685 17.0865 21.4685 17.0112 21.4685C16.9924 21.4685 16.9736 21.4685 16.9736 21.4499C16.6727 21.4128 16.4282 21.2642 16.2025 21.0599C15.4502 20.317 14.679 19.5556 13.9267 18.8128C13.8703 18.7571 13.8703 18.7571 13.8139 18.8128C13.0427 19.5742 12.2904 20.317 11.5193 21.0785C11.3876 21.2085 11.256 21.3013 11.0867 21.3756C10.9739 21.4313 10.8422 21.4499 10.7294 21.4685C10.6541 21.4685 10.5789 21.4685 10.4849 21.4685C10.4472 21.4685 10.4284 21.4499 10.3908 21.4499C9.883 21.357 9.54445 21.0785 9.39399 20.5956C9.24352 20.1128 9.35637 19.6856 9.71373 19.3328C10.0335 19.017 10.3344 18.7199 10.6541 18.4042C11.1243 17.9399 11.5945 17.4756 12.0459 17.0299C12.1023 16.9742 12.1023 16.9742 12.0271 16.9556C12.0083 16.9556 11.9707 16.9371 11.9519 16.9371C11.1055 16.7328 10.3344 16.3985 9.60088 15.9528C9.16829 15.6742 8.9614 15.2656 9.01783 14.7642C9.11187 13.8356 10.1651 13.3342 10.9551 13.8356C11.1055 13.9285 11.2372 14.0028 11.4064 14.0771C12.2716 14.5042 13.1932 14.6899 14.1524 14.6342C14.6226 14.6156 15.0928 14.5228 15.563 14.3742C16.0144 14.2256 16.4094 14.0214 16.8232 13.7985C17.5003 13.4085 18.3842 13.7242 18.6475 14.4485C18.6852 14.5599 18.704 14.6528 18.7228 14.7642C18.7228 14.8199 18.7228 14.8756 18.7228 14.9499Z" fill="currentColor"/>
</symbol><symbol id="phone-tablet" viewBox="0 0 25 24">
<path d="M19.6447 14.8671C19.1526 14.3555 18.5591 14.082 17.9301 14.082C17.3062 14.082 16.7076 14.3505 16.1952 14.8621L14.5922 16.4576C14.4603 16.3867 14.3285 16.3209 14.2016 16.255C14.019 16.1639 13.8465 16.0777 13.6994 15.9866C12.1979 15.0343 10.8333 13.7933 9.52458 12.1875C8.89048 11.3872 8.46437 10.7135 8.15494 10.0297C8.5709 9.6498 8.95643 9.2547 9.33181 8.87479C9.47385 8.73296 9.61588 8.58607 9.75792 8.44424C10.8232 7.38051 10.8232 6.00273 9.75792 4.93901L8.37306 3.55616C8.21581 3.39913 8.05348 3.23704 7.9013 3.07495C7.59693 2.7609 7.27735 2.43671 6.94762 2.13279C6.45557 1.64652 5.86713 1.38818 5.24826 1.38818C4.62938 1.38818 4.0308 1.64652 3.52353 2.13279C3.51845 2.13786 3.51845 2.13786 3.51338 2.14292L1.78865 3.88034C1.13934 4.52871 0.76903 5.31891 0.687866 6.23574C0.56612 7.71483 1.00238 9.09261 1.33718 9.99424C2.15896 12.2078 3.38656 14.2593 5.21782 16.4576C7.43968 19.1068 10.113 21.1988 13.1668 22.6729C14.3335 23.225 15.8909 23.8784 17.6308 23.9898C17.7373 23.9949 17.8489 24 17.9504 24C19.1222 24 20.1063 23.5796 20.8774 22.7438C20.8824 22.7336 20.8926 22.7286 20.8977 22.7184C21.1614 22.3993 21.4658 22.1106 21.7854 21.8016C22.0035 21.5939 22.2267 21.3761 22.4448 21.1482C22.947 20.6264 23.2108 20.0186 23.2108 19.3956C23.2108 18.7675 22.942 18.1647 22.4296 17.6581L19.6447 14.8671ZM21.4607 20.201C21.4557 20.201 21.4557 20.206 21.4607 20.201C21.2629 20.4137 21.06 20.6062 20.8419 20.8189C20.5121 21.133 20.1773 21.4622 19.8628 21.832C19.3505 22.3791 18.7468 22.6374 17.9555 22.6374C17.8794 22.6374 17.7982 22.6374 17.7221 22.6323C16.2155 22.5361 14.8154 21.9485 13.7654 21.447C10.8942 20.0591 8.37306 18.0887 6.27802 15.5915C4.54822 13.5096 3.39164 11.5848 2.62565 9.5181C2.15389 8.25682 1.98141 7.27414 2.05751 6.34718C2.10823 5.75453 2.33651 5.26319 2.75754 4.84276L4.48735 3.11547C4.73591 2.88247 4.99969 2.75583 5.2584 2.75583C5.57799 2.75583 5.83669 2.94832 5.99902 3.11041C6.0041 3.11547 6.00917 3.12054 6.01424 3.1256C6.32368 3.41433 6.6179 3.71319 6.92733 4.03231C7.08459 4.1944 7.24692 4.35649 7.40924 4.52365L8.7941 5.90649C9.33181 6.44342 9.33181 6.93983 8.7941 7.47675C8.64699 7.62365 8.50495 7.77054 8.35785 7.91237C7.93174 8.348 7.52592 8.75323 7.08459 9.14832C7.07444 9.15846 7.0643 9.16352 7.05922 9.17365C6.62297 9.60927 6.70413 10.0348 6.79544 10.3235C6.80051 10.3387 6.80559 10.3539 6.81066 10.3691C7.17083 11.2403 7.6781 12.0609 8.44915 13.0385L8.45423 13.0436C9.8543 14.7658 11.3305 16.1081 12.9588 17.1364C13.1668 17.2681 13.3799 17.3745 13.5828 17.4758C13.7654 17.567 13.9379 17.6531 14.085 17.7443C14.1053 17.7544 14.1255 17.7696 14.1458 17.7797C14.3183 17.8658 14.4806 17.9063 14.648 17.9063C15.0691 17.9063 15.3329 17.6429 15.4191 17.5568L17.154 15.8245C17.3264 15.6523 17.6004 15.4446 17.92 15.4446C18.2345 15.4446 18.4932 15.6421 18.6504 15.8143C18.6555 15.8194 18.6555 15.8194 18.6606 15.8245L21.4557 18.6155C21.9781 19.1322 21.9781 19.664 21.4607 20.201Z" fill="#00B2FF"/>
<path d="M13.6384 5.70896C14.9675 5.93184 16.1748 6.55994 17.1386 7.52236C18.1024 8.48478 18.7264 9.69034 18.9546 11.0175C19.0104 11.3518 19.2996 11.5848 19.6293 11.5848C19.6699 11.5848 19.7054 11.5797 19.746 11.5747C20.1214 11.5139 20.3699 11.1593 20.3091 10.7845C20.0351 9.17874 19.2742 7.71484 18.1126 6.55488C16.9509 5.39491 15.4849 4.6351 13.8768 4.36157C13.5014 4.30079 13.1514 4.54899 13.0855 4.91876C13.0195 5.28853 13.263 5.64817 13.6384 5.70896Z" fill="#00B2FF"/>
<path d="M24.6564 10.5869C24.2049 7.94279 22.957 5.53674 21.0395 3.62203C19.122 1.70732 16.7124 0.461243 14.0645 0.0104253C13.6942 -0.0554245 13.3442 0.197844 13.2782 0.567616C13.2173 0.942453 13.4659 1.29196 13.8413 1.35781C16.2052 1.75798 18.3611 2.87742 20.0757 4.58445C21.7903 6.29654 22.9063 8.44933 23.307 10.8098C23.3628 11.1441 23.652 11.3771 23.9817 11.3771C24.0223 11.3771 24.0578 11.372 24.0984 11.367C24.4687 11.3113 24.7223 10.9567 24.6564 10.5869Z" fill="#00B2FF"/>
</symbol><symbol id="phone" viewBox="0 0 18 18">
<path d="M14.2333 11.1503C13.8642 10.7666 13.4191 10.5615 12.9473 10.5615C12.4794 10.5615 12.0304 10.7628 11.6462 11.1465L10.4439 12.3432C10.345 12.2901 10.2461 12.2407 10.151 12.1913C10.014 12.1229 9.88467 12.0583 9.77433 11.9899C8.64819 11.2757 7.62476 10.3449 6.64319 9.14066C6.16762 8.54041 5.84804 8.03514 5.61596 7.52227C5.92793 7.23735 6.21708 6.94102 6.49861 6.6561C6.60514 6.54972 6.71167 6.43955 6.8182 6.33318C7.61715 5.53538 7.61715 4.50205 6.8182 3.70425L5.77955 2.66712C5.66161 2.54935 5.53987 2.42778 5.42573 2.30621C5.19746 2.07067 4.95777 1.82754 4.71047 1.59959C4.34143 1.23489 3.9001 1.04114 3.43595 1.04114C2.97179 1.04114 2.52286 1.23489 2.1424 1.59959C2.1386 1.60339 2.1386 1.60339 2.13479 1.60719L0.841243 2.91026C0.35426 3.39653 0.076528 3.98918 0.0156552 4.6768C-0.0756541 5.78612 0.251537 6.81945 0.502638 7.49568C1.11898 9.15586 2.03968 10.6945 3.41312 12.3432C5.07952 14.3301 7.08452 15.8991 9.37486 17.0046C10.2499 17.4187 11.4179 17.9088 12.7229 17.9924C12.8028 17.9962 12.8865 18 12.9626 18C13.8414 18 14.5795 17.6847 15.1578 17.0578C15.1616 17.0502 15.1692 17.0464 15.173 17.0388C15.3708 16.7995 15.5991 16.5829 15.8388 16.3512C16.0024 16.1954 16.1698 16.0321 16.3334 15.8611C16.71 15.4698 16.9079 15.014 16.9079 14.5467C16.9079 14.0756 16.7062 13.6235 16.322 13.2436L14.2333 11.1503ZM15.5953 15.1507C15.5915 15.1507 15.5915 15.1545 15.5953 15.1507C15.4469 15.3103 15.2947 15.4546 15.1311 15.6142C14.8838 15.8497 14.6327 16.0967 14.3969 16.374C14.0126 16.7843 13.5599 16.978 12.9664 16.978C12.9093 16.978 12.8484 16.978 12.7913 16.9742C11.6614 16.9021 10.6113 16.4614 9.82379 16.0853C7.67042 15.0443 5.77955 13.5665 4.20827 11.6936C2.91092 10.1322 2.04348 8.68857 1.46899 7.13857C1.11517 6.19262 0.985816 5.4556 1.04288 4.76038C1.08093 4.3159 1.25214 3.94739 1.56791 3.63207L2.86527 2.33661C3.05169 2.16185 3.24953 2.06687 3.44356 2.06687C3.68324 2.06687 3.87728 2.21124 3.99902 2.33281C4.00283 2.33661 4.00663 2.3404 4.01044 2.3442C4.24251 2.56075 4.46318 2.78489 4.69526 3.02423C4.8132 3.1458 4.93494 3.26737 5.05669 3.39273L6.09533 4.42987C6.49861 4.83256 6.49861 5.20487 6.09533 5.60757C5.985 5.71774 5.87847 5.82791 5.76814 5.93428C5.44856 6.261 5.14419 6.56492 4.8132 6.86124C4.80559 6.86884 4.79798 6.87264 4.79417 6.88024C4.46698 7.20695 4.52786 7.52607 4.59634 7.74262C4.60014 7.75401 4.60395 7.76541 4.60775 7.77681C4.87787 8.43024 5.25833 9.04568 5.83662 9.7789L5.84043 9.78269C6.89048 11.0744 7.99761 12.0811 9.21887 12.8523C9.37486 12.9511 9.53465 13.0309 9.68683 13.1068C9.82379 13.1752 9.95315 13.2398 10.0635 13.3082C10.0787 13.3158 10.0939 13.3272 10.1091 13.3348C10.2385 13.3994 10.3602 13.4298 10.4858 13.4298C10.8016 13.4298 10.9994 13.2322 11.0641 13.1676L12.3652 11.8684C12.4946 11.7392 12.7 11.5834 12.9397 11.5834C13.1756 11.5834 13.3696 11.7316 13.4876 11.8608C13.4914 11.8646 13.4914 11.8646 13.4952 11.8684L15.5915 13.9616C15.9834 14.3491 15.9834 14.748 15.5953 15.1507Z" fill="currentColor"/>
<path d="M9.72843 4.28169C10.7252 4.44885 11.6307 4.91992 12.3536 5.64174C13.0764 6.36355 13.5444 7.26772 13.7156 8.26307C13.7575 8.5138 13.9743 8.68856 14.2216 8.68856C14.252 8.68856 14.2787 8.68476 14.3091 8.68096C14.5907 8.63537 14.7771 8.36944 14.7314 8.08831C14.526 6.88402 13.9553 5.7861 13.0841 4.91613C12.2128 4.04615 11.1133 3.4763 9.90725 3.27115C9.62571 3.22556 9.3632 3.41171 9.31374 3.68904C9.26428 3.96637 9.4469 4.2361 9.72843 4.28169Z" fill="currentColor"/>
<path d="M17.9921 7.94018C17.6535 5.95709 16.7176 4.15255 15.2795 2.71652C13.8414 1.28049 12.0342 0.345932 10.0482 0.00781895C9.77051 -0.0415684 9.50799 0.148383 9.45853 0.425712C9.41288 0.70684 9.5993 0.968972 9.88084 1.01836C11.6538 1.31848 13.2707 2.15807 14.5566 3.43834C15.8426 4.72241 16.6796 6.33699 16.9801 8.10734C17.022 8.35808 17.2388 8.53283 17.4861 8.53283C17.5166 8.53283 17.5432 8.52903 17.5736 8.52523C17.8514 8.48344 18.0416 8.21751 17.9921 7.94018Z" fill="currentColor"/>
</symbol><symbol id="vk" viewBox="0 0 27 26">
<path d="M19.475 15.1271C18.3662 14.1029 18.287 14.1029 19.2374 12.9211C20.4254 11.4243 22.0095 9.53349 20.5838 9.53349H17.9701C17.4949 9.53349 17.4157 9.84862 17.2573 10.2425C16.6237 11.7394 15.3565 13.709 14.8812 13.3938C14.406 13.0787 14.6436 11.897 14.6436 10.0062C14.7228 9.76984 14.6436 9.53349 14.4852 9.37592C14.3268 9.21836 14.0892 9.06079 13.8516 9.06079C13.4556 8.98201 13.0596 8.90323 12.6636 8.90323C11.1587 8.90323 10.1291 9.53349 10.6835 9.61227C11.7131 9.76984 11.6339 11.9758 11.3963 12.9211C11.0003 14.5756 9.41624 11.6606 8.70342 10.1638C8.62421 9.76984 8.3074 9.53349 7.91139 9.53349H5.85212C5.53531 9.53349 5.2977 9.61227 5.2977 9.84862C5.2977 10.2425 7.27777 14.1029 9.09943 16.0725C10.9211 17.9632 12.7428 17.8057 14.01 17.8057C14.1684 17.8057 14.3268 17.7269 14.406 17.6481C14.4852 17.5693 14.5644 17.4118 14.5644 17.2542C14.5644 15.9937 15.0396 15.3634 15.9109 16.23C16.8613 17.1754 17.0989 17.8057 18.287 17.8057H20.4254C20.9799 17.8057 21.1383 17.6481 21.1383 17.4118C21.2175 16.8603 20.267 15.8361 19.475 15.1271ZM13.8516 0.000789162C21.2175 0.158354 27.0785 6.06705 26.9993 13.2363C26.9201 20.4055 20.8214 26.0778 13.4556 25.9991C6.01052 25.9203 0.0703125 20.1691 0.0703125 12.9999C0.149515 5.75192 6.32733 -0.0779935 13.8516 0.000789162Z" fill="currentColor"/>
</symbol></svg>